# Blender 4.1.1
# www.blender.org
mtllib skyDome.mtl
o 球
v 0.000000 882.706726 -175.581238
v 0.000000 831.491577 -344.415039
v 0.000000 748.322693 -500.013153
v 0.000000 636.396179 -636.396057
v 0.000000 500.013214 -748.322632
v 0.000000 344.415131 -831.491577
v 0.000000 175.581375 -882.706726
v 0.000000 0.000136 -900.000000
v 0.000000 -175.581116 -882.706787
v 0.000000 -748.322632 -500.013214
v -34.254265 882.706726 -172.207474
v -67.192116 831.491577 -337.797211
v -97.547806 748.322693 -490.405548
v -124.154778 636.396179 -624.167847
v -145.990570 500.013214 -733.943787
v -162.216003 344.415131 -815.514648
v -172.207596 175.581375 -865.745728
v -175.581345 0.000135 -882.706726
v -172.207611 -175.581116 -865.745789
v -162.216019 -344.414886 -815.514709
v -145.990570 -500.013092 -733.943909
v -124.154778 -636.396057 -624.167969
v -97.547791 -748.322632 -490.405609
v -67.192085 -831.491638 -337.797180
v -34.254227 -882.706787 -172.207382
v -67.192169 882.706726 -162.215897
v -131.802063 831.491577 -318.197998
v -191.346893 748.322693 -461.951874
v -243.538361 636.396179 -587.953186
v -286.370789 500.013214 -691.359863
v -318.198120 344.415131 -768.197937
v -337.797363 175.581375 -815.514587
v -344.415192 0.000131 -831.491516
v -337.797363 -175.581116 -815.514587
v -318.198151 -344.414886 -768.197998
v -286.370789 -500.013092 -691.359985
v -243.538361 -636.396057 -587.953308
v -191.346863 -748.322632 -461.951935
v -131.802002 -831.491638 -318.197968
v -67.192078 -882.706787 -162.215805
v -97.547913 882.706726 -145.990402
v -191.346939 831.491577 -286.370605
v -277.792603 748.322693 -415.745667
v -353.562897 636.396179 -529.143860
v -415.745941 500.013214 -622.207397
v -461.952087 344.415131 -691.359863
v -490.405701 175.581375 -733.943665
v -500.013367 0.000124 -748.322510
v -490.405701 -175.581116 -733.943665
v -461.952087 -344.414886 -691.359924
v -415.745941 -500.013092 -622.207520
v -353.562897 -636.396057 -529.143982
v -277.792572 -748.322632 -415.745728
v -191.346863 -831.491638 -286.370575
v -97.547775 -882.706787 -145.990356
v -124.154938 882.706726 -124.154572
v -243.538467 831.491577 -243.538101
v -353.562927 748.322632 -353.562561
v -450.000153 636.396179 -449.999817
v -529.144226 500.013184 -529.143799
v -587.953491 344.415100 -587.953186
v -624.168091 175.581360 -624.167725
v -636.396301 0.000116 -636.395935
v -624.168091 -175.581131 -624.167725
v -587.953491 -344.414917 -587.953247
v -529.144226 -500.013123 -529.143921
v -450.000153 -636.396057 -449.999939
v -353.562897 -748.322693 -353.562622
v -243.538361 -831.491638 -243.538147
v -124.154762 -882.706787 -124.154564
v -145.990753 882.706726 -97.547539
v -286.370941 831.491577 -191.346603
v -415.746002 748.322632 -277.792236
v -529.144226 636.396118 -353.562500
v -622.207764 500.013184 -415.745575
v -691.360107 344.415100 -461.951782
v -733.943970 175.581345 -490.405334
v -748.322876 0.000106 -500.013000
v -733.943970 -175.581146 -490.405334
v -691.360107 -344.414917 -461.951904
v -622.207764 -500.013123 -415.745636
v -529.144226 -636.396118 -353.562622
v -415.745941 -748.322693 -277.792328
v -286.370819 -831.491638 -191.346649
v -145.990555 -882.706787 -97.547562
v -162.216217 882.706726 -67.191795
v -318.198303 831.491577 -131.801712
v -461.952179 748.322632 -191.346527
v -587.953491 636.396118 -243.537994
v -691.360168 500.013184 -286.370422
v -768.198181 344.415100 -318.197815
v -815.514771 175.581345 -337.796906
v -831.491760 0.000094 -344.414856
v -815.514771 -175.581146 -337.796906
v -768.198181 -344.414917 -318.197937
v -691.360168 -500.013123 -286.370483
v -587.953491 -636.396118 -243.538086
v -461.952148 -748.322693 -191.346603
v -318.198181 -831.491638 -131.801804
v -162.216003 -882.706787 -67.191864
v -172.207809 882.706726 -34.253902
v -337.797516 831.491577 -67.191757
v -490.405823 748.322632 -97.547447
v -624.168091 636.396118 -124.154434
v -733.944031 500.013153 -145.990204
v -815.514832 344.415070 -162.215714
v -865.745850 175.581329 -172.207184
v -882.706970 0.000081 -175.580994
v -865.745850 -175.581161 -172.207214
v -815.514832 -344.414948 -162.215820
v -733.944031 -500.013153 -145.990265
v -624.168091 -636.396118 -124.154526
v -490.405762 -748.322693 -97.547516
v -337.797363 -831.491638 -67.191864
v -172.207581 -882.706787 -34.254005
v -175.581543 882.706726 0.000361
v -344.415314 831.491577 0.000350
v -500.013428 748.322632 0.000337
v -636.396240 636.396118 0.000335
v -748.322815 500.013153 0.000339
v -831.491699 344.415070 0.000273
v -882.706726 175.581314 0.000367
v -900.000244 0.000068 0.000341
v -882.706726 -175.581177 0.000341
v -831.491699 -344.414948 0.000181
v -748.322815 -500.013153 0.000263
v -636.396240 -636.396118 0.000239
v -500.013336 -748.322693 0.000251
v -344.415192 -831.491638 0.000211
v -175.581329 -882.706787 0.000210
v -172.207794 882.706726 34.254620
v -337.797485 831.491577 67.192451
v -490.405823 748.322632 97.548119
v -624.168091 636.396118 124.155075
v -733.943970 500.013153 145.990860
v -815.514832 344.415070 162.216263
v -865.745728 175.581299 172.207901
v -882.706970 0.000055 175.581665
v -865.745728 -175.581192 172.207870
v -815.514832 -344.414948 162.216156
v -733.943970 -500.013153 145.990799
v -624.168091 -636.396118 124.154984
v -490.405701 -748.322693 97.548019
v -337.797363 -831.491638 67.192284
v -172.207581 -882.706787 34.254433
v -162.216187 882.706726 67.192513
v -318.198273 831.491577 131.802383
v -461.952148 748.322632 191.347183
v -587.953491 636.396118 243.538620
v -691.360046 500.013123 286.371063
v -768.198181 344.415039 318.198364
v -815.514587 175.581284 337.797577
v -831.491699 0.000042 344.415497
v -815.514587 -175.581207 337.797577
v -768.198181 -344.414978 318.198242
v -691.360046 -500.013184 286.371002
v -587.953491 -636.396118 243.538528
v -461.952026 -748.322693 191.347061
v -318.198120 -831.491638 131.802200
v -162.215988 -882.706787 67.192276
v -145.990692 882.706726 97.548233
v -286.370880 831.491577 191.347214
v -415.745941 748.322632 277.792877
v -529.144165 636.396118 353.563110
v -622.207581 500.013123 415.746185
v -691.360107 344.415039 461.952271
v -733.943726 175.581284 490.405884
v -748.322754 0.000030 500.013611
v -733.943726 -175.581207 490.405884
v -691.360107 -344.414978 461.952209
v -622.207581 -500.013184 415.746124
v -529.144165 -636.396118 353.562988
v -415.745819 -748.322693 277.792725
v -286.370728 -831.491638 191.347046
v -145.990524 -882.706787 97.547974
v -124.154869 882.706726 124.155243
v -243.538406 831.491577 243.538712
v -353.562836 748.322632 353.563171
v -450.000061 636.396057 450.000397
v -529.143982 500.013123 529.144409
v -587.953491 344.415039 587.953613
v -624.167847 175.581268 624.168152
v -636.396118 0.000020 636.396545
v -624.167847 -175.581223 624.168152
v -587.953491 -344.414978 587.953613
v -529.143982 -500.013184 529.144287
v -450.000061 -636.396179 450.000275
v -353.562744 -748.322693 353.562988
v -243.538269 -831.491638 243.538513
v -124.154732 -882.706787 124.154961
v -97.547844 882.706726 145.991028
v -191.346893 831.491577 286.371155
v -277.792511 748.322571 415.746216
v -353.562744 636.396057 529.144409
v -415.745758 500.013092 622.207886
v -461.952087 344.415009 691.360291
v -490.405487 175.581253 733.944092
v -500.013214 0.000012 748.323059
v -490.405487 -175.581238 733.944092
v -461.952087 -344.415009 691.360291
v -415.745758 -500.013214 622.207764
v -353.562744 -636.396179 529.144287
v -277.792450 -748.322754 415.746033
v -191.346786 -831.491638 286.370911
v -97.547752 -882.706787 145.990753
v 0.000000 -900.000000 0.000225
v -67.192123 882.706726 162.216492
v -131.802032 831.491577 318.198517
v -191.346832 748.322571 461.952423
v -243.538223 636.396057 587.953674
v -286.370605 500.013092 691.360291
v -318.198120 344.415009 768.198364
v -337.797150 175.581253 815.514893
v -344.415070 0.000005 831.492004
v -337.797150 -175.581238 815.514893
v -318.198120 -344.415009 768.198364
v -286.370605 -500.013214 691.360168
v -243.538223 -636.396179 587.953552
v -191.346756 -748.322754 461.952179
v -131.801956 -831.491638 318.198273
v -67.192062 -882.706787 162.216202
v -34.254242 882.706726 172.208084
v -67.192108 831.491577 337.797699
v -97.547783 748.322571 490.406036
v -124.154694 636.396057 624.168274
v -145.990417 500.013092 733.944092
v -162.216019 344.415009 815.514954
v -172.207443 175.581253 865.745911
v -175.581223 0.000001 882.707153
v -172.207443 -175.581238 865.745911
v -162.216019 -344.415009 815.514954
v -145.990417 -500.013214 733.943970
v -124.154694 -636.396179 624.168152
v -97.547722 -748.322754 490.405823
v -67.192055 -831.491638 337.797485
v -34.254215 -882.706787 172.207779
v 0.000006 882.706726 175.581818
v -0.000037 831.491577 344.415527
v -0.000024 748.322571 500.013672
v 0.000023 636.396057 636.396423
v 0.000077 500.013092 748.322815
v -0.000057 344.415009 831.491882
v 0.000077 175.581253 882.706848
v 0.000090 0.000000 900.000305
v 0.000077 -175.581238 882.706848
v -0.000057 -344.415009 831.491882
v 0.000077 -500.013214 748.322693
v 0.000023 -636.396179 636.396301
v 0.000010 -748.322754 500.013367
v -0.000004 -831.491638 344.415283
v -0.000004 -882.706787 175.581512
v 34.254253 882.706726 172.208054
v 67.192032 831.491577 337.797638
v 97.547729 748.322571 490.406036
v 124.154747 636.396057 624.168213
v 145.990555 500.013092 733.943970
v 162.215912 344.415009 815.514954
v 172.207581 175.581253 865.745850
v 175.581406 0.000001 882.707031
v 172.207581 -175.581238 865.745850
v 162.215912 -344.415009 815.514954
v 145.990555 -500.013214 733.943848
v 124.154747 -636.396179 624.168091
v 97.547729 -748.322754 490.405762
v 67.192039 -831.491638 337.797424
v 34.254208 -882.706787 172.207764
v 67.192116 882.706726 162.216461
v 131.801941 831.491577 318.198425
v 191.346786 748.322571 461.952423
v 243.538254 636.396057 587.953613
v 286.370697 500.013092 691.360046
v 318.197998 344.415009 768.198364
v 337.797241 175.581253 815.514709
v 344.415222 0.000005 831.491821
v 337.797241 -175.581238 815.514709
v 318.197998 -344.415009 768.198364
v 286.370697 -500.013214 691.359924
v 243.538254 -636.396179 587.953491
v 191.346756 -748.322754 461.952118
v 131.801926 -831.491638 318.198212
v 67.192039 -882.706787 162.216156
v 97.547821 882.706726 145.990982
v 191.346771 831.491577 286.371033
v 277.792480 748.322571 415.746216
v 353.562744 636.396057 529.144348
v 415.745728 500.013092 622.207581
v 461.951935 344.415009 691.360229
v 490.405548 175.581253 733.943848
v 500.013336 0.000012 748.322876
v 490.405548 -175.581238 733.943848
v 461.951935 -344.415009 691.360229
v 415.745728 -500.013214 622.207458
v 353.562744 -636.396179 529.144226
v 277.792419 -748.322754 415.745941
v 191.346725 -831.491638 286.370819
v 97.547714 -882.706787 145.990692
v 0.000207 900.000000 0.000569
v 124.154831 882.706726 124.155182
v 243.538254 831.491577 243.538574
v 353.562744 748.322632 353.563141
v 450.000000 636.396057 450.000275
v 529.143860 500.013123 529.144043
v 587.953247 344.415039 587.953552
v 624.167786 175.581268 624.167908
v 636.396179 0.000020 636.396240
v 624.167786 -175.581223 624.167908
v 587.953247 -344.414978 587.953552
v 529.143860 -500.013184 529.143921
v 450.000000 -636.396179 450.000153
v 353.562683 -748.322693 353.562866
v 243.538193 -831.491638 243.538376
v 124.154678 -882.706787 124.154907
v 145.990631 882.706726 97.548172
v 286.370697 831.491577 191.347076
v 415.745789 748.322632 277.792816
v 529.143982 636.396118 353.563019
v 622.207397 500.013123 415.745819
v 691.359924 344.415039 461.952271
v 733.943665 175.581284 490.405548
v 748.322693 0.000030 500.013336
v 733.943665 -175.581207 490.405548
v 691.359924 -344.414978 461.952209
v 622.207397 -500.013184 415.745758
v 529.143982 -636.396118 353.562897
v 415.745728 -748.322693 277.792572
v 286.370605 -831.491638 191.346878
v 145.990463 -882.706787 97.547920
v 162.216080 882.706726 67.192459
v 318.198029 831.491577 131.802246
v 461.951965 748.322632 191.347107
v 587.953308 636.396118 243.538483
v 691.359680 500.013123 286.370758
v 768.197998 344.415039 318.198364
v 815.514465 175.581284 337.797211
v 831.491577 0.000042 344.415192
v 815.514465 -175.581207 337.797211
v 768.197998 -344.414978 318.198303
v 691.359680 -500.013184 286.370697
v 587.953308 -636.396118 243.538391
v 461.951874 -748.322693 191.346909
v 318.197937 -831.491638 131.802063
v 162.215897 -882.706787 67.192238
v 172.207672 882.706726 34.254581
v 337.797180 831.491577 67.192352
v 490.405609 748.322632 97.548050
v 624.167908 636.396118 124.154938
v 733.943542 500.013153 145.990601
v 815.514648 344.415070 162.216278
v 865.745483 175.581299 172.207581
v 882.706665 0.000055 175.581406
v 865.745483 -175.581192 172.207550
v 815.514648 -344.414948 162.216217
v 733.943542 -500.013153 145.990540
v 624.167908 -636.396118 124.154846
v 490.405487 -748.322693 97.547905
v 337.797119 -831.491638 67.192192
v 172.207474 -882.706787 34.254417
v 175.581406 882.706726 0.000348
v 344.415039 831.491577 0.000317
v 500.013153 748.322632 0.000310
v 636.396057 636.396118 0.000215
v 748.322327 500.013153 0.000164
v 831.491516 344.415070 0.000313
v 882.706360 175.581314 0.000099
v 899.999817 0.000068 0.000126
v 882.706360 -175.581177 0.000073
v 831.491516 -344.414948 0.000261
v 748.322327 -500.013153 0.000088
v 636.396057 -636.396118 0.000119
v 500.013062 -748.322693 0.000178
v 344.414917 -831.491638 0.000164
v 175.581223 -882.706787 0.000217
v 172.207657 882.706726 -34.253887
v 337.797180 831.491577 -67.191719
v 490.405548 748.322632 -97.547424
v 624.167847 636.396118 -124.154503
v 733.943420 500.013153 -145.990280
v 815.514587 344.415070 -162.215637
v 865.745300 175.581329 -172.207367
v 882.706482 0.000081 -175.581146
v 865.745300 -175.581161 -172.207397
v 815.514587 -344.414948 -162.215698
v 733.943420 -500.013153 -145.990341
v 624.167847 -636.396118 -124.154594
v 490.405426 -748.322693 -97.547531
v 337.797089 -831.491638 -67.191849
v 172.207474 -882.706787 -34.253975
v 162.216064 882.706726 -67.191742
v 318.197998 831.491577 -131.801605
v 461.951874 748.322632 -191.346451
v 587.953186 636.396118 -243.538010
v 691.359558 500.013184 -286.370392
v 768.197937 344.415100 -318.197723
v 815.514160 175.581345 -337.796967
v 831.491272 0.000094 -344.414886
v 815.514160 -175.581146 -337.796967
v 768.197937 -344.414917 -318.197784
v 691.359558 -500.013123 -286.370453
v 587.953186 -636.396118 -243.538101
v 461.951752 -748.322693 -191.346542
v 318.197876 -831.491638 -131.801727
v 162.215897 -882.706787 -67.191803
v 145.990601 882.706726 -97.547447
v 286.370605 831.491577 -191.346420
v 415.745667 748.322632 -277.792114
v 529.143860 636.396118 -353.562469
v 622.207092 500.013184 -415.745422
v 691.359863 344.415100 -461.951630
v 733.943298 175.581345 -490.405212
v 748.322327 0.000106 -500.012939
v 733.943298 -175.581146 -490.405212
v 691.359863 -344.414917 -461.951691
v 622.207092 -500.013123 -415.745483
v 529.143860 -636.396118 -353.562592
v 415.745575 -748.322693 -277.792175
v 286.370483 -831.491638 -191.346512
v 145.990448 -882.706787 -97.547470
v 124.154785 882.706726 -124.154449
v 243.538147 831.491577 -243.537872
v 353.562592 748.322632 -353.562378
v 449.999878 636.396179 -449.999695
v 529.143555 500.013184 -529.143555
v 587.953247 344.415100 -587.953003
v 624.167419 175.581360 -624.167419
v 636.395691 0.000116 -636.395752
v 624.167419 -175.581131 -624.167419
v 587.953247 -344.414917 -587.953003
v 529.143555 -500.013123 -529.143677
v 449.999878 -636.396057 -449.999817
v 353.562531 -748.322693 -353.562408
v 243.538086 -831.491638 -243.537933
v 124.154671 -882.706787 -124.154457
v 97.547783 882.706726 -145.990250
v 191.346680 831.491577 -286.370270
v 277.792297 748.322693 -415.745392
v 353.562561 636.396179 -529.143677
v 415.745361 500.013214 -622.206970
v 461.951874 344.415131 -691.359619
v 490.405121 175.581375 -733.943176
v 500.012848 0.000124 -748.322205
v 490.405121 -175.581116 -733.943176
v 461.951874 -344.414886 -691.359619
v 415.745361 -500.013092 -622.207092
v 353.562561 -636.396057 -529.143799
v 277.792267 -748.322632 -415.745422
v 191.346634 -831.491638 -286.370331
v 97.547691 -882.706787 -145.990234
v 67.192070 882.706726 -162.215729
v 131.801865 831.491577 -318.197632
v 191.346649 748.322693 -461.951538
v 243.538086 636.396179 -587.953003
v 286.370270 500.013214 -691.359314
v 318.197968 344.415131 -768.197632
v 337.796814 175.581375 -815.513977
v 344.414734 0.000131 -831.491028
v 337.796814 -175.581116 -815.513977
v 318.197968 -344.414886 -768.197632
v 286.370270 -500.013092 -691.359436
v 243.538086 -636.396057 -587.953125
v 191.346588 -748.322632 -461.951569
v 131.801834 -831.491638 -318.197693
v 67.192009 -882.706787 -162.215683
v 34.254204 882.706726 -172.207306
v 67.191963 831.491577 -337.796814
v 97.547615 748.322693 -490.405121
v 124.154572 636.396179 -624.167542
v 145.990189 500.013214 -733.943115
v 162.215881 344.415131 -815.514282
v 172.207199 175.581375 -865.744995
v 175.580978 0.000135 -882.706055
v 172.207199 -175.581116 -865.744995
v 162.215881 -344.414886 -815.514282
v 145.990189 -500.013092 -733.943237
v 124.154572 -636.396057 -624.167664
v 97.547585 -748.322632 -490.405121
v 67.191948 -831.491638 -337.796875
v 34.254185 -882.706787 -172.207260
v -0.000057 -344.414886 -831.491150
v -0.000245 -500.013092 -748.321960
v -0.000138 -636.396057 -636.395752
v -0.000071 -831.491638 -344.414703
v -0.000014 -882.706787 -175.580994
vn -0.0000 0.9217 0.3879
vn 0.0392 0.9796 0.1971
vn -0.0000 0.9796 0.2010
vn -0.0000 -0.1939 0.9810
vn 0.1951 -0.0000 0.9808
vn -0.0000 -0.0000 1.0000
vn -0.0000 -0.9796 0.2010
vn -0.0000 -1.0000 -0.0000
vn 0.0392 -0.9796 0.1971
vn -0.0000 1.0000 -0.0000
vn 0.1914 0.1939 0.9622
vn -0.0000 0.1939 0.9810
vn -0.0000 -0.9217 0.3879
vn 0.0757 -0.9217 0.3804
vn 0.1804 0.3805 0.9070
vn -0.0000 0.3805 0.9248
vn 0.1092 -0.8286 0.5490
vn -0.0000 -0.8286 0.5598
vn 0.1626 0.5528 0.8173
vn -0.0000 0.5528 0.8333
vn -0.0000 -0.7041 0.7101
vn 0.1385 -0.7041 0.6965
vn 0.1385 0.7041 0.6965
vn -0.0000 0.7041 0.7101
vn 0.1626 -0.5528 0.8173
vn -0.0000 -0.5528 0.8333
vn 0.1092 0.8286 0.5490
vn -0.0000 0.8286 0.5598
vn 0.1804 -0.3805 0.9070
vn -0.0000 -0.3805 0.9248
vn 0.0757 0.9217 0.3804
vn 0.1914 -0.1939 0.9622
vn 0.3539 -0.3805 0.8544
vn 0.2142 0.8286 0.5172
vn 0.1484 0.9217 0.3584
vn 0.3754 -0.1939 0.9063
vn 0.0769 0.9796 0.1857
vn 0.3827 -0.0000 0.9239
vn 0.0769 -0.9796 0.1857
vn 0.3754 0.1939 0.9063
vn 0.1484 -0.9217 0.3584
vn 0.3539 0.3805 0.8544
vn 0.2142 -0.8286 0.5172
vn 0.3189 0.5528 0.7699
vn 0.2718 -0.7041 0.6561
vn 0.2718 0.7041 0.6561
vn 0.3189 -0.5528 0.7699
vn 0.5138 0.3805 0.7689
vn 0.3110 -0.8286 0.4654
vn 0.4630 0.5528 0.6929
vn 0.3945 -0.7041 0.5905
vn 0.3945 0.7041 0.5905
vn 0.4630 -0.5528 0.6929
vn 0.3110 0.8286 0.4654
vn 0.5138 -0.3805 0.7689
vn 0.2155 0.9217 0.3225
vn 0.5450 -0.1939 0.8157
vn 0.1117 0.9796 0.1671
vn 0.5556 -0.0000 0.8315
vn 0.1117 -0.9796 0.1671
vn 0.5450 0.1939 0.8157
vn 0.2155 -0.9217 0.3225
vn 0.2743 0.9217 0.2743
vn 0.6937 -0.1939 0.6937
vn 0.1421 0.9796 0.1421
vn 0.7071 -0.0000 0.7071
vn 0.1421 -0.9796 0.1421
vn 0.6937 0.1939 0.6937
vn 0.2743 -0.9217 0.2743
vn 0.6539 0.3805 0.6539
vn 0.3958 -0.8286 0.3958
vn 0.5893 0.5528 0.5893
vn 0.5021 -0.7041 0.5021
vn 0.5021 0.7041 0.5021
vn 0.5893 -0.5528 0.5893
vn 0.3958 0.8286 0.3958
vn 0.6539 -0.3805 0.6539
vn 0.7689 0.3805 0.5138
vn 0.6929 0.5528 0.4630
vn 0.5905 -0.7041 0.3945
vn 0.5905 0.7041 0.3945
vn 0.6929 -0.5528 0.4630
vn 0.4654 0.8286 0.3110
vn 0.7689 -0.3805 0.5138
vn 0.3225 0.9217 0.2155
vn 0.8157 -0.1939 0.5450
vn 0.1671 0.9796 0.1117
vn 0.8315 -0.0000 0.5556
vn 0.1671 -0.9796 0.1117
vn 0.8157 0.1939 0.5450
vn 0.3225 -0.9217 0.2155
vn 0.4654 -0.8286 0.3110
vn 0.1857 0.9796 0.0769
vn 0.9239 -0.0000 0.3827
vn 0.1857 -0.9796 0.0769
vn 0.9063 0.1939 0.3754
vn 0.3584 -0.9217 0.1484
vn 0.8544 0.3805 0.3539
vn 0.5172 -0.8286 0.2142
vn 0.7699 0.5528 0.3189
vn 0.6561 -0.7041 0.2718
vn 0.6561 0.7041 0.2718
vn 0.7699 -0.5528 0.3189
vn 0.5172 0.8286 0.2142
vn 0.8544 -0.3805 0.3539
vn 0.3584 0.9217 0.1484
vn 0.9063 -0.1939 0.3754
vn 0.6965 -0.7041 0.1385
vn 0.6965 0.7041 0.1385
vn 0.8173 -0.5528 0.1626
vn 0.5490 0.8286 0.1092
vn 0.9070 -0.3805 0.1804
vn 0.3804 0.9217 0.0757
vn 0.9622 -0.1939 0.1914
vn 0.1971 0.9796 0.0392
vn 0.9808 -0.0000 0.1951
vn 0.1971 -0.9796 0.0392
vn 0.9622 0.1939 0.1914
vn 0.3804 -0.9217 0.0757
vn 0.9070 0.3805 0.1804
vn 0.5490 -0.8286 0.1092
vn 0.8173 0.5528 0.1626
vn 1.0000 -0.0000 -0.0000
vn 0.2010 -0.9796 -0.0000
vn 0.2010 0.9796 -0.0000
vn 0.9810 0.1939 -0.0000
vn 0.3879 -0.9217 -0.0000
vn 0.9248 0.3805 -0.0000
vn 0.5598 -0.8286 -0.0000
vn 0.8333 0.5528 -0.0000
vn 0.7101 -0.7041 -0.0000
vn 0.7101 0.7041 -0.0000
vn 0.8333 -0.5528 -0.0000
vn 0.5598 0.8286 -0.0000
vn 0.9248 -0.3805 -0.0000
vn 0.3879 0.9217 -0.0000
vn 0.9810 -0.1939 -0.0000
vn 0.6965 0.7041 -0.1385
vn 0.8173 -0.5528 -0.1626
vn 0.5490 0.8286 -0.1092
vn 0.9070 -0.3805 -0.1804
vn 0.3804 0.9217 -0.0757
vn 0.9622 -0.1939 -0.1914
vn 0.1971 0.9796 -0.0392
vn 0.9808 -0.0000 -0.1951
vn 0.1971 -0.9796 -0.0392
vn 0.9622 0.1939 -0.1914
vn 0.3804 -0.9217 -0.0757
vn 0.9070 0.3805 -0.1804
vn 0.5490 -0.8286 -0.1092
vn 0.8173 0.5528 -0.1626
vn 0.6965 -0.7041 -0.1385
vn 0.1857 -0.9796 -0.0769
vn 0.1857 0.9796 -0.0769
vn 0.9239 -0.0000 -0.3827
vn 0.9063 0.1939 -0.3754
vn 0.3584 -0.9217 -0.1484
vn 0.8544 0.3805 -0.3539
vn 0.5172 -0.8286 -0.2142
vn 0.7699 0.5528 -0.3189
vn 0.6561 -0.7041 -0.2718
vn 0.6561 0.7041 -0.2718
vn 0.7699 -0.5528 -0.3189
vn 0.5172 0.8286 -0.2142
vn 0.8544 -0.3805 -0.3539
vn 0.3584 0.9217 -0.1484
vn 0.9063 -0.1939 -0.3754
vn 0.5905 -0.7041 -0.3945
vn 0.6929 -0.5528 -0.4630
vn 0.5905 0.7041 -0.3945
vn 0.4654 0.8286 -0.3110
vn 0.7689 -0.3805 -0.5138
vn 0.3225 0.9217 -0.2155
vn 0.8157 -0.1939 -0.5450
vn 0.1671 0.9796 -0.1117
vn 0.8315 -0.0000 -0.5556
vn 0.1671 -0.9796 -0.1117
vn 0.8157 0.1939 -0.5450
vn 0.3225 -0.9217 -0.2155
vn 0.7689 0.3805 -0.5138
vn 0.4654 -0.8286 -0.3110
vn 0.6929 0.5528 -0.4630
vn 0.7071 -0.0000 -0.7071
vn 0.6937 0.1939 -0.6937
vn 0.2743 -0.9217 -0.2743
vn 0.6539 0.3805 -0.6539
vn 0.3958 -0.8286 -0.3958
vn 0.5893 0.5528 -0.5893
vn 0.5021 -0.7041 -0.5021
vn 0.5021 0.7041 -0.5021
vn 0.5893 -0.5528 -0.5893
vn 0.3958 0.8286 -0.3958
vn 0.6539 -0.3805 -0.6539
vn 0.2743 0.9217 -0.2743
vn 0.6937 -0.1939 -0.6937
vn 0.1421 0.9796 -0.1421
vn 0.1421 -0.9796 -0.1421
vn 0.3110 0.8286 -0.4654
vn 0.5138 -0.3805 -0.7689
vn 0.2155 0.9217 -0.3225
vn 0.5450 -0.1939 -0.8157
vn 0.1117 0.9796 -0.1671
vn 0.5556 -0.0000 -0.8315
vn 0.1117 -0.9796 -0.1671
vn 0.5450 0.1939 -0.8157
vn 0.2155 -0.9217 -0.3225
vn 0.5138 0.3805 -0.7689
vn 0.3110 -0.8286 -0.4654
vn 0.4630 0.5528 -0.6929
vn 0.3945 -0.7041 -0.5905
vn 0.3945 0.7041 -0.5905
vn 0.4630 -0.5528 -0.6929
vn 0.3539 0.3805 -0.8544
vn 0.1484 -0.9217 -0.3584
vn 0.2142 -0.8286 -0.5172
vn 0.3189 0.5528 -0.7699
vn 0.2718 -0.7041 -0.6561
vn 0.2718 0.7041 -0.6561
vn 0.3189 -0.5528 -0.7699
vn 0.2142 0.8286 -0.5172
vn 0.3539 -0.3805 -0.8544
vn 0.1484 0.9217 -0.3584
vn 0.3754 -0.1939 -0.9063
vn 0.0769 0.9796 -0.1857
vn 0.3827 -0.0000 -0.9239
vn 0.0769 -0.9796 -0.1857
vn 0.3754 0.1939 -0.9063
vn 0.0757 0.9217 -0.3804
vn 0.1804 -0.3805 -0.9070
vn 0.1914 -0.1939 -0.9622
vn 0.0392 0.9796 -0.1971
vn 0.1951 -0.0000 -0.9808
vn 0.0392 -0.9796 -0.1971
vn 0.1914 0.1939 -0.9622
vn 0.0757 -0.9217 -0.3804
vn 0.1804 0.3805 -0.9070
vn 0.1092 -0.8286 -0.5490
vn 0.1626 0.5528 -0.8173
vn 0.1385 -0.7041 -0.6965
vn 0.1385 0.7041 -0.6965
vn 0.1626 -0.5528 -0.8173
vn 0.1092 0.8286 -0.5490
vn -0.0000 -0.9217 -0.3879
vn -0.0000 -0.8286 -0.5598
vn -0.0000 0.3805 -0.9248
vn -0.0000 0.5528 -0.8333
vn -0.0000 -0.7041 -0.7101
vn -0.0000 0.7041 -0.7101
vn -0.0000 -0.5528 -0.8333
vn -0.0000 0.8286 -0.5598
vn -0.0000 -0.3805 -0.9248
vn -0.0000 0.9217 -0.3879
vn -0.0000 -0.1939 -0.9810
vn -0.0000 0.9796 -0.2010
vn -0.0000 -0.0000 -1.0000
vn -0.0000 -0.9796 -0.2010
vn -0.0000 0.1939 -0.9810
vn -0.1804 -0.3805 -0.9070
vn -0.1914 -0.1939 -0.9622
vn -0.0392 0.9796 -0.1971
vn -0.1951 -0.0000 -0.9808
vn -0.0392 -0.9796 -0.1971
vn -0.1914 0.1939 -0.9622
vn -0.0757 -0.9217 -0.3804
vn -0.1804 0.3805 -0.9070
vn -0.1092 -0.8286 -0.5490
vn -0.1626 0.5528 -0.8173
vn -0.1385 -0.7041 -0.6965
vn -0.1385 0.7041 -0.6965
vn -0.1626 -0.5528 -0.8173
vn -0.1092 0.8286 -0.5490
vn -0.0757 0.9217 -0.3804
vn -0.3539 0.3805 -0.8544
vn -0.3189 0.5528 -0.7699
vn -0.2718 -0.7041 -0.6561
vn -0.2718 0.7041 -0.6561
vn -0.3189 -0.5528 -0.7699
vn -0.2142 0.8286 -0.5172
vn -0.3539 -0.3805 -0.8544
vn -0.1484 0.9217 -0.3584
vn -0.3754 -0.1939 -0.9063
vn -0.0769 0.9796 -0.1857
vn -0.3827 -0.0000 -0.9239
vn -0.0769 -0.9796 -0.1857
vn -0.3754 0.1939 -0.9063
vn -0.1484 -0.9217 -0.3584
vn -0.2142 -0.8286 -0.5172
vn -0.1117 0.9796 -0.1671
vn -0.5556 -0.0000 -0.8315
vn -0.1117 -0.9796 -0.1671
vn -0.5450 0.1939 -0.8157
vn -0.2155 -0.9217 -0.3225
vn -0.5138 0.3805 -0.7689
vn -0.3110 -0.8286 -0.4654
vn -0.4630 0.5528 -0.6929
vn -0.3945 -0.7041 -0.5905
vn -0.3945 0.7041 -0.5905
vn -0.4630 -0.5528 -0.6929
vn -0.3110 0.8286 -0.4654
vn -0.5138 -0.3805 -0.7689
vn -0.2155 0.9217 -0.3225
vn -0.5450 -0.1939 -0.8157
vn -0.3958 -0.8286 -0.3958
vn -0.5021 -0.7041 -0.5021
vn -0.5893 0.5528 -0.5893
vn -0.5021 0.7041 -0.5021
vn -0.5893 -0.5528 -0.5893
vn -0.3958 0.8286 -0.3958
vn -0.6539 -0.3805 -0.6539
vn -0.2743 0.9217 -0.2743
vn -0.6937 -0.1939 -0.6937
vn -0.1421 0.9796 -0.1421
vn -0.7071 -0.0000 -0.7071
vn -0.1421 -0.9796 -0.1421
vn -0.6937 0.1939 -0.6937
vn -0.2743 -0.9217 -0.2743
vn -0.6539 0.3805 -0.6539
vn -0.8315 -0.0000 -0.5556
vn -0.1671 -0.9796 -0.1116
vn -0.1671 0.9796 -0.1117
vn -0.8157 0.1939 -0.5450
vn -0.3225 -0.9217 -0.2155
vn -0.7689 0.3805 -0.5138
vn -0.4654 -0.8286 -0.3110
vn -0.6929 0.5528 -0.4630
vn -0.5905 -0.7041 -0.3945
vn -0.5905 0.7041 -0.3945
vn -0.6929 -0.5528 -0.4630
vn -0.4654 0.8286 -0.3110
vn -0.7689 -0.3805 -0.5138
vn -0.3225 0.9217 -0.2155
vn -0.8157 -0.1939 -0.5450
vn -0.6561 0.7041 -0.2718
vn -0.6561 -0.7041 -0.2718
vn -0.7699 -0.5528 -0.3189
vn -0.5172 0.8286 -0.2142
vn -0.8544 -0.3805 -0.3539
vn -0.3584 0.9217 -0.1484
vn -0.9063 -0.1939 -0.3754
vn -0.1857 0.9796 -0.0769
vn -0.9239 -0.0000 -0.3827
vn -0.1857 -0.9796 -0.0769
vn -0.9063 0.1939 -0.3754
vn -0.3584 -0.9217 -0.1484
vn -0.8544 0.3805 -0.3539
vn -0.5172 -0.8286 -0.2142
vn -0.7699 0.5528 -0.3189
vn -0.1971 0.9796 -0.0392
vn -0.9808 -0.0000 -0.1951
vn -0.9622 0.1939 -0.1914
vn -0.1971 -0.9796 -0.0392
vn -0.3804 -0.9217 -0.0757
vn -0.9070 0.3805 -0.1804
vn -0.5490 -0.8286 -0.1092
vn -0.8173 0.5528 -0.1626
vn -0.6965 -0.7041 -0.1385
vn -0.6965 0.7041 -0.1385
vn -0.8173 -0.5528 -0.1626
vn -0.5490 0.8286 -0.1092
vn -0.9070 -0.3805 -0.1804
vn -0.3804 0.9217 -0.0757
vn -0.9622 -0.1939 -0.1914
vn -0.5598 0.8286 -0.0000
vn -0.9248 -0.3805 -0.0000
vn -0.3879 0.9217 -0.0000
vn -0.9810 -0.1939 -0.0000
vn -0.2010 0.9796 -0.0000
vn -1.0000 -0.0000 -0.0000
vn -0.2010 -0.9796 -0.0000
vn -0.9810 0.1939 -0.0000
vn -0.3879 -0.9217 -0.0000
vn -0.9248 0.3805 -0.0000
vn -0.5598 -0.8286 -0.0000
vn -0.8333 0.5528 -0.0000
vn -0.7101 -0.7041 -0.0000
vn -0.7101 0.7041 -0.0000
vn -0.8333 -0.5528 -0.0000
vn -0.3804 -0.9217 0.0757
vn -0.9070 0.3805 0.1804
vn -0.5490 -0.8286 0.1092
vn -0.8173 0.5528 0.1626
vn -0.6965 -0.7041 0.1385
vn -0.6965 0.7041 0.1385
vn -0.8173 -0.5528 0.1626
vn -0.5490 0.8286 0.1092
vn -0.9070 -0.3805 0.1804
vn -0.3804 0.9217 0.0757
vn -0.9622 -0.1939 0.1914
vn -0.1971 0.9796 0.0392
vn -0.9808 -0.0000 0.1951
vn -0.1971 -0.9796 0.0392
vn -0.9622 0.1939 0.1914
vn -0.8544 -0.3805 0.3539
vn -0.5172 0.8286 0.2142
vn -0.3584 0.9217 0.1484
vn -0.9063 -0.1939 0.3754
vn -0.1857 0.9796 0.0769
vn -0.9239 -0.0000 0.3827
vn -0.1857 -0.9796 0.0769
vn -0.9063 0.1939 0.3754
vn -0.3584 -0.9217 0.1484
vn -0.8544 0.3805 0.3539
vn -0.5172 -0.8286 0.2142
vn -0.7699 0.5528 0.3189
vn -0.6561 -0.7041 0.2718
vn -0.6561 0.7041 0.2718
vn -0.7699 -0.5528 0.3189
vn -0.7689 0.3805 0.5138
vn -0.3225 -0.9217 0.2155
vn -0.4654 -0.8286 0.3110
vn -0.6929 0.5528 0.4630
vn -0.5905 -0.7041 0.3945
vn -0.5905 0.7041 0.3945
vn -0.6929 -0.5528 0.4630
vn -0.4654 0.8286 0.3110
vn -0.7689 -0.3805 0.5138
vn -0.3225 0.9217 0.2155
vn -0.8157 -0.1939 0.5450
vn -0.1671 0.9796 0.1116
vn -0.8315 -0.0000 0.5556
vn -0.1671 -0.9796 0.1117
vn -0.8157 0.1939 0.5450
vn -0.2743 0.9217 0.2743
vn -0.6539 -0.3805 0.6539
vn -0.6937 -0.1939 0.6937
vn -0.1421 0.9796 0.1421
vn -0.7071 -0.0000 0.7071
vn -0.1421 -0.9796 0.1421
vn -0.6937 0.1939 0.6937
vn -0.2743 -0.9217 0.2743
vn -0.6539 0.3805 0.6539
vn -0.3958 -0.8286 0.3958
vn -0.5893 0.5528 0.5893
vn -0.5021 -0.7041 0.5021
vn -0.5021 0.7041 0.5021
vn -0.5893 -0.5528 0.5893
vn -0.3958 0.8286 0.3958
vn -0.3110 -0.8286 0.4654
vn -0.5138 0.3805 0.7689
vn -0.4630 0.5528 0.6929
vn -0.3945 -0.7041 0.5905
vn -0.3945 0.7041 0.5905
vn -0.4630 -0.5528 0.6929
vn -0.3110 0.8286 0.4654
vn -0.5138 -0.3805 0.7689
vn -0.2155 0.9217 0.3225
vn -0.5450 -0.1939 0.8157
vn -0.1117 0.9796 0.1671
vn -0.5556 -0.0000 0.8315
vn -0.1117 -0.9796 0.1671
vn -0.5450 0.1939 0.8157
vn -0.2155 -0.9217 0.3225
vn -0.3539 -0.3805 0.8544
vn -0.3754 -0.1939 0.9063
vn -0.0769 0.9796 0.1857
vn -0.3827 -0.0000 0.9239
vn -0.0769 -0.9796 0.1857
vn -0.3754 0.1939 0.9063
vn -0.1484 -0.9217 0.3584
vn -0.3539 0.3805 0.8544
vn -0.2142 -0.8286 0.5172
vn -0.3189 0.5528 0.7699
vn -0.2718 -0.7041 0.6561
vn -0.2718 0.7041 0.6561
vn -0.3189 -0.5528 0.7699
vn -0.2142 0.8286 0.5172
vn -0.1484 0.9217 0.3584
vn -0.1804 0.3805 0.9070
vn -0.1626 0.5528 0.8173
vn -0.1092 -0.8286 0.5490
vn -0.1385 -0.7041 0.6965
vn -0.1385 0.7041 0.6965
vn -0.1626 -0.5528 0.8173
vn -0.1092 0.8286 0.5490
vn -0.1804 -0.3805 0.9070
vn -0.0757 0.9217 0.3804
vn -0.1914 -0.1939 0.9622
vn -0.0392 0.9796 0.1971
vn -0.1951 -0.0000 0.9808
vn -0.0392 -0.9796 0.1971
vn -0.1914 0.1939 0.9622
vn -0.0757 -0.9217 0.3804
vt 0.750000 0.125000
vt 0.718750 0.062500
vt 0.750000 0.062500
vt 0.750000 0.562500
vt 0.718750 0.500000
vt 0.750000 0.500000
vt 0.750000 0.937500
vt 0.734375 1.000000
vt 0.718750 0.937500
vt 0.734375 0.000000
vt 0.718750 0.437500
vt 0.750000 0.437500
vt 0.750000 0.875000
vt 0.718750 0.875000
vt 0.718750 0.375000
vt 0.750000 0.375000
vt 0.718750 0.812500
vt 0.750000 0.812500
vt 0.718750 0.312500
vt 0.750000 0.312500
vt 0.750000 0.750000
vt 0.718750 0.750000
vt 0.718750 0.250000
vt 0.750000 0.250000
vt 0.718750 0.687500
vt 0.750000 0.687500
vt 0.718750 0.187500
vt 0.750000 0.187500
vt 0.718750 0.625000
vt 0.750000 0.625000
vt 0.718750 0.125000
vt 0.718750 0.562500
vt 0.687500 0.625000
vt 0.687500 0.187500
vt 0.687500 0.125000
vt 0.687500 0.562500
vt 0.687500 0.062500
vt 0.687500 0.500000
vt 0.703125 1.000000
vt 0.687500 0.937500
vt 0.703125 0.000000
vt 0.687500 0.437500
vt 0.687500 0.875000
vt 0.687500 0.375000
vt 0.687500 0.812500
vt 0.687500 0.312500
vt 0.687500 0.750000
vt 0.687500 0.250000
vt 0.687500 0.687500
vt 0.656250 0.375000
vt 0.656250 0.812500
vt 0.656250 0.312500
vt 0.656250 0.750000
vt 0.656250 0.250000
vt 0.656250 0.687500
vt 0.656250 0.187500
vt 0.656250 0.625000
vt 0.656250 0.125000
vt 0.656250 0.562500
vt 0.656250 0.062500
vt 0.656250 0.500000
vt 0.671875 1.000000
vt 0.656250 0.937500
vt 0.671875 0.000000
vt 0.656250 0.437500
vt 0.656250 0.875000
vt 0.625000 0.125000
vt 0.625000 0.562500
vt 0.625000 0.062500
vt 0.625000 0.500000
vt 0.640625 1.000000
vt 0.625000 0.937500
vt 0.640625 0.000000
vt 0.625000 0.437500
vt 0.625000 0.875000
vt 0.625000 0.375000
vt 0.625000 0.812500
vt 0.625000 0.312500
vt 0.625000 0.750000
vt 0.625000 0.250000
vt 0.625000 0.687500
vt 0.625000 0.187500
vt 0.625000 0.625000
vt 0.593750 0.375000
vt 0.593750 0.312500
vt 0.593750 0.750000
vt 0.593750 0.250000
vt 0.593750 0.687500
vt 0.593750 0.187500
vt 0.593750 0.625000
vt 0.593750 0.125000
vt 0.593750 0.562500
vt 0.593750 0.062500
vt 0.593750 0.500000
vt 0.609375 1.000000
vt 0.593750 0.937500
vt 0.609375 0.000000
vt 0.593750 0.437500
vt 0.593750 0.875000
vt 0.593750 0.812500
vt 0.562500 0.062500
vt 0.562500 0.500000
vt 0.578125 1.000000
vt 0.562500 0.937500
vt 0.578125 0.000000
vt 0.562500 0.437500
vt 0.562500 0.875000
vt 0.562500 0.375000
vt 0.562500 0.812500
vt 0.562500 0.312500
vt 0.562500 0.750000
vt 0.562500 0.250000
vt 0.562500 0.687500
vt 0.562500 0.187500
vt 0.562500 0.625000
vt 0.562500 0.125000
vt 0.562500 0.562500
vt 0.531250 0.750000
vt 0.531250 0.250000
vt 0.531250 0.687500
vt 0.531250 0.187500
vt 0.531250 0.625000
vt 0.531250 0.125000
vt 0.531250 0.562500
vt 0.531250 0.062500
vt 0.531250 0.500000
vt 0.546875 1.000000
vt 0.531250 0.937500
vt 0.546875 0.000000
vt 0.531250 0.437500
vt 0.531250 0.875000
vt 0.531250 0.375000
vt 0.531250 0.812500
vt 0.531250 0.312500
vt 0.500000 0.500000
vt 0.515625 1.000000
vt 0.500000 0.937500
vt 0.515625 0.000000
vt 0.500000 0.062500
vt 0.500000 0.437500
vt 0.500000 0.875000
vt 0.500000 0.375000
vt 0.500000 0.812500
vt 0.500000 0.312500
vt 0.500000 0.750000
vt 0.500000 0.250000
vt 0.500000 0.687500
vt 0.500000 0.187500
vt 0.500000 0.625000
vt 0.500000 0.125000
vt 0.500000 0.562500
vt 0.468750 0.250000
vt 0.468750 0.687500
vt 0.468750 0.187500
vt 0.468750 0.625000
vt 0.468750 0.125000
vt 0.468750 0.562500
vt 0.468750 0.062500
vt 0.468750 0.500000
vt 0.484374 1.000000
vt 0.468750 0.937500
vt 0.484375 0.000000
vt 0.468750 0.437500
vt 0.468750 0.875000
vt 0.468750 0.375000
vt 0.468750 0.812500
vt 0.468750 0.312500
vt 0.468750 0.750000
vt 0.453124 1.000000
vt 0.437500 0.937500
vt 0.453125 0.000000
vt 0.437500 0.062500
vt 0.437500 0.500000
vt 0.437500 0.437500
vt 0.437500 0.875000
vt 0.437500 0.375000
vt 0.437500 0.812500
vt 0.437500 0.312500
vt 0.437500 0.750000
vt 0.437500 0.250000
vt 0.437500 0.687500
vt 0.437500 0.187500
vt 0.437500 0.625000
vt 0.437500 0.125000
vt 0.437500 0.562500
vt 0.406250 0.750000
vt 0.406250 0.687500
vt 0.406250 0.250000
vt 0.406250 0.187500
vt 0.406250 0.625000
vt 0.406250 0.125000
vt 0.406250 0.562500
vt 0.406250 0.062500
vt 0.406250 0.500000
vt 0.421874 1.000000
vt 0.406250 0.937500
vt 0.421875 0.000000
vt 0.406250 0.437500
vt 0.406250 0.875000
vt 0.406250 0.375000
vt 0.406250 0.812500
vt 0.406250 0.312500
vt 0.375000 0.500000
vt 0.375000 0.437500
vt 0.375000 0.875000
vt 0.375000 0.375000
vt 0.375000 0.812500
vt 0.375000 0.312500
vt 0.375000 0.750000
vt 0.375000 0.250000
vt 0.375000 0.687500
vt 0.375000 0.187500
vt 0.375000 0.625000
vt 0.375000 0.125000
vt 0.375000 0.562500
vt 0.375000 0.062500
vt 0.390625 1.000000
vt 0.375000 0.937500
vt 0.390625 0.000000
vt 0.343750 0.187500
vt 0.343750 0.625000
vt 0.343750 0.125000
vt 0.343750 0.562500
vt 0.343750 0.062500
vt 0.343750 0.500000
vt 0.359375 1.000000
vt 0.343750 0.937500
vt 0.359375 0.000000
vt 0.343750 0.437500
vt 0.343750 0.875000
vt 0.343750 0.375000
vt 0.343750 0.812500
vt 0.343750 0.312500
vt 0.343750 0.750000
vt 0.343750 0.250000
vt 0.343750 0.687500
vt 0.312500 0.375000
vt 0.312500 0.875000
vt 0.312500 0.812500
vt 0.312500 0.312500
vt 0.312500 0.750000
vt 0.312500 0.250000
vt 0.312500 0.687500
vt 0.312500 0.187500
vt 0.312500 0.625000
vt 0.312500 0.125000
vt 0.312500 0.562500
vt 0.312500 0.062500
vt 0.312500 0.500000
vt 0.328125 1.000000
vt 0.312500 0.937500
vt 0.328125 0.000000
vt 0.312500 0.437500
vt 0.281250 0.125000
vt 0.281250 0.625000
vt 0.281250 0.562500
vt 0.281250 0.062500
vt 0.281250 0.500000
vt 0.296875 1.000000
vt 0.281250 0.937500
vt 0.296875 0.000000
vt 0.281250 0.437500
vt 0.281250 0.875000
vt 0.281250 0.375000
vt 0.281250 0.812500
vt 0.281250 0.312500
vt 0.281250 0.750000
vt 0.281250 0.250000
vt 0.281250 0.687500
vt 0.281250 0.187500
vt 0.250000 0.875000
vt 0.250000 0.812500
vt 0.250000 0.375000
vt 0.250000 0.312500
vt 0.250000 0.750000
vt 0.250000 0.250000
vt 0.250000 0.687500
vt 0.250000 0.187500
vt 0.250000 0.625000
vt 0.250000 0.125000
vt 0.250000 0.562500
vt 0.250000 0.062500
vt 0.250000 0.500000
vt 0.265625 1.000000
vt 0.250000 0.937500
vt 0.265625 0.000000
vt 0.250000 0.437500
vt 0.218750 0.625000
vt 0.218750 0.562500
vt 0.218750 0.062500
vt 0.218750 0.500000
vt 0.234375 1.000000
vt 0.218750 0.937500
vt 0.234375 0.000000
vt 0.218750 0.437500
vt 0.218750 0.875000
vt 0.218750 0.375000
vt 0.218750 0.812500
vt 0.218750 0.312500
vt 0.218750 0.750000
vt 0.218750 0.250000
vt 0.218750 0.687500
vt 0.218750 0.187500
vt 0.218750 0.125000
vt 0.187500 0.375000
vt 0.187500 0.312500
vt 0.187500 0.750000
vt 0.187500 0.250000
vt 0.187500 0.687500
vt 0.187500 0.187500
vt 0.187500 0.625000
vt 0.187500 0.125000
vt 0.187500 0.562500
vt 0.187500 0.062500
vt 0.187500 0.500000
vt 0.203125 1.000000
vt 0.187500 0.937500
vt 0.203125 0.000000
vt 0.187500 0.437500
vt 0.187500 0.875000
vt 0.187500 0.812500
vt 0.156250 0.062500
vt 0.156250 0.500000
vt 0.171875 1.000000
vt 0.156250 0.937500
vt 0.171875 0.000000
vt 0.156250 0.437500
vt 0.156250 0.875000
vt 0.156250 0.375000
vt 0.156250 0.812500
vt 0.156250 0.312500
vt 0.156250 0.750000
vt 0.156250 0.250000
vt 0.156250 0.687500
vt 0.156250 0.187500
vt 0.156250 0.625000
vt 0.156250 0.125000
vt 0.156250 0.562500
vt 0.125000 0.812500
vt 0.125000 0.750000
vt 0.125000 0.312500
vt 0.125000 0.250000
vt 0.125000 0.687500
vt 0.125000 0.187500
vt 0.125000 0.625000
vt 0.125000 0.125000
vt 0.125000 0.562500
vt 0.125000 0.062500
vt 0.125000 0.500000
vt 0.140625 1.000000
vt 0.125000 0.937500
vt 0.140625 0.000000
vt 0.125000 0.437500
vt 0.125000 0.875000
vt 0.125000 0.375000
vt 0.093750 0.500000
vt 0.109375 1.000000
vt 0.093750 0.937500
vt 0.109375 0.000000
vt 0.093750 0.062500
vt 0.093750 0.437500
vt 0.093750 0.875000
vt 0.093750 0.375000
vt 0.093750 0.812500
vt 0.093750 0.312500
vt 0.093750 0.750000
vt 0.093750 0.250000
vt 0.093750 0.687500
vt 0.093750 0.187500
vt 0.093750 0.625000
vt 0.093750 0.125000
vt 0.093750 0.562500
vt 0.062500 0.250000
vt 0.062500 0.750000
vt 0.062500 0.687500
vt 0.062500 0.187500
vt 0.062500 0.625000
vt 0.062500 0.125000
vt 0.062500 0.562500
vt 0.062500 0.062500
vt 0.062500 0.500000
vt 0.078125 1.000000
vt 0.062500 0.937500
vt 0.078125 0.000000
vt 0.062500 0.437500
vt 0.062500 0.875000
vt 0.062500 0.375000
vt 0.062500 0.812500
vt 0.062500 0.312500
vt 0.046875 0.000000
vt 0.031250 0.062500
vt 0.031250 0.500000
vt 0.031250 0.437500
vt 0.031250 0.937500
vt 0.031250 0.875000
vt 0.031250 0.375000
vt 0.031250 0.812500
vt 0.031250 0.312500
vt 0.031250 0.750000
vt 0.031250 0.250000
vt 0.031250 0.687500
vt 0.031250 0.187500
vt 0.031250 0.625000
vt 0.031250 0.125000
vt 0.031250 0.562500
vt 0.046875 1.000000
vt 0.000000 0.187500
vt 0.000000 0.625000
vt 0.000000 0.125000
vt 0.000000 0.562500
vt 0.000000 0.062500
vt 0.000000 0.500000
vt 0.015625 1.000000
vt 0.000000 0.937500
vt 0.015625 0.000000
vt 0.000000 0.437500
vt 0.000000 0.875000
vt 0.000000 0.375000
vt 0.000000 0.812500
vt 0.000000 0.312500
vt 0.000000 0.750000
vt 0.000000 0.250000
vt 0.000000 0.687500
vt 1.000000 0.937500
vt 0.968750 0.875000
vt 1.000000 0.875000
vt 1.000000 0.437500
vt 0.968750 0.375000
vt 1.000000 0.375000
vt 0.968750 0.812500
vt 1.000000 0.812500
vt 1.000000 0.312500
vt 0.968750 0.312500
vt 1.000000 0.750000
vt 0.968750 0.750000
vt 0.968750 0.250000
vt 1.000000 0.250000
vt 0.968750 0.687500
vt 1.000000 0.687500
vt 0.968750 0.187500
vt 1.000000 0.187500
vt 0.968750 0.625000
vt 1.000000 0.625000
vt 1.000000 0.125000
vt 0.968750 0.125000
vt 1.000000 0.562500
vt 0.968750 0.562500
vt 1.000000 0.062500
vt 0.968750 0.062500
vt 1.000000 0.500000
vt 0.968750 0.500000
vt 0.984375 1.000000
vt 0.968750 0.937500
vt 0.984375 0.000000
vt 0.968750 0.437500
vt 0.937500 0.625000
vt 0.937500 0.187500
vt 0.937500 0.125000
vt 0.937500 0.562500
vt 0.937500 0.062500
vt 0.937500 0.500000
vt 0.953125 1.000000
vt 0.937500 0.937500
vt 0.953125 0.000000
vt 0.937500 0.437500
vt 0.937500 0.875000
vt 0.937500 0.375000
vt 0.937500 0.812500
vt 0.937500 0.312500
vt 0.937500 0.750000
vt 0.937500 0.250000
vt 0.937500 0.687500
vt 0.906250 0.375000
vt 0.906250 0.875000
vt 0.906250 0.812500
vt 0.906250 0.312500
vt 0.906250 0.750000
vt 0.906250 0.250000
vt 0.906250 0.687500
vt 0.906250 0.187500
vt 0.906250 0.625000
vt 0.906250 0.125000
vt 0.906250 0.562500
vt 0.906250 0.062500
vt 0.906250 0.500000
vt 0.921875 1.000000
vt 0.906250 0.937500
vt 0.921875 0.000000
vt 0.906250 0.437500
vt 0.875000 0.125000
vt 0.875000 0.625000
vt 0.875000 0.562500
vt 0.875000 0.062500
vt 0.875000 0.500000
vt 0.890625 1.000000
vt 0.875000 0.937500
vt 0.890625 0.000000
vt 0.875000 0.437500
vt 0.875000 0.875000
vt 0.875000 0.375000
vt 0.875000 0.812500
vt 0.875000 0.312500
vt 0.875000 0.750000
vt 0.875000 0.250000
vt 0.875000 0.687500
vt 0.875000 0.187500
vt 0.843750 0.812500
vt 0.843750 0.375000
vt 0.843750 0.312500
vt 0.843750 0.750000
vt 0.843750 0.250000
vt 0.843750 0.687500
vt 0.843750 0.187500
vt 0.843750 0.625000
vt 0.843750 0.125000
vt 0.843750 0.562500
vt 0.843750 0.062500
vt 0.843750 0.500000
vt 0.859375 1.000000
vt 0.843750 0.937500
vt 0.859375 0.000000
vt 0.843750 0.437500
vt 0.843750 0.875000
vt 0.812500 0.625000
vt 0.812500 0.562500
vt 0.812500 0.062500
vt 0.812500 0.500000
vt 0.828125 1.000000
vt 0.812500 0.937500
vt 0.828125 0.000000
vt 0.812500 0.437500
vt 0.812500 0.875000
vt 0.812500 0.375000
vt 0.812500 0.812500
vt 0.812500 0.312500
vt 0.812500 0.750000
vt 0.812500 0.250000
vt 0.812500 0.687500
vt 0.812500 0.187500
vt 0.812500 0.125000
vt 0.781250 0.375000
vt 0.781250 0.312500
vt 0.781250 0.812500
vt 0.781250 0.750000
vt 0.781250 0.250000
vt 0.781250 0.687500
vt 0.781250 0.187500
vt 0.781250 0.625000
vt 0.781250 0.125000
vt 0.781250 0.562500
vt 0.781250 0.062500
vt 0.781250 0.500000
vt 0.796875 1.000000
vt 0.781250 0.937500
vt 0.796875 0.000000
vt 0.781250 0.437500
vt 0.781250 0.875000
vt 0.765625 1.000000
vt 0.765625 0.000000
s 1
usemtl Skydome
f 481/1/1 25/2/2 482/3/3
f 7/4/4 18/5/5 8/6/6
f 1/7/7 297/8/8 11/9/9
f 206/10/10 482/3/3 25/2/2
f 8/6/6 19/11/11 9/12/12
f 2/13/13 11/9/9 12/14/14
f 9/12/12 20/15/15 478/16/16
f 2/13/13 13/17/17 3/18/18
f 478/16/16 21/19/19 479/20/20
f 4/21/21 13/17/17 14/22/22
f 479/20/20 22/23/23 480/24/24
f 4/21/21 15/25/25 5/26/26
f 480/24/24 23/27/27 10/28/28
f 5/26/26 16/29/29 6/30/30
f 10/28/28 24/31/31 481/1/1
f 6/30/30 17/32/32 7/4/4
f 15/25/25 31/33/33 16/29/29
f 24/31/31 38/34/34 39/35/35
f 16/29/29 32/36/36 17/32/32
f 24/31/31 40/37/37 25/2/2
f 17/32/32 33/38/38 18/5/5
f 11/9/9 297/39/8 26/40/39
f 206/41/10 25/2/2 40/37/37
f 19/11/11 33/38/38 34/42/40
f 11/9/9 27/43/41 12/14/14
f 20/15/15 34/42/40 35/44/42
f 13/17/17 27/43/41 28/45/43
f 21/19/19 35/44/42 36/46/44
f 13/17/17 29/47/45 14/22/22
f 22/23/23 36/46/44 37/48/46
f 14/22/22 30/49/47 15/25/25
f 23/27/27 37/48/46 38/34/34
f 34/42/40 50/50/48 35/44/42
f 27/43/41 43/51/49 28/45/43
f 35/44/42 51/52/50 36/46/44
f 28/45/43 44/53/51 29/47/45
f 36/46/44 52/54/52 37/48/46
f 29/47/45 45/55/53 30/49/47
f 37/48/46 53/56/54 38/34/34
f 30/49/47 46/57/55 31/33/33
f 39/35/35 53/56/54 54/58/56
f 31/33/33 47/59/57 32/36/36
f 40/37/37 54/58/56 55/60/58
f 32/36/36 48/61/59 33/38/38
f 26/40/39 297/62/8 41/63/60
f 206/64/10 40/37/37 55/60/58
f 34/42/40 48/61/59 49/65/61
f 27/43/41 41/63/60 42/66/62
f 53/56/54 69/67/63 54/58/56
f 46/57/55 62/68/64 47/59/57
f 54/58/56 70/69/65 55/60/58
f 47/59/57 63/70/66 48/61/59
f 41/63/60 297/71/8 56/72/67
f 206/73/10 55/60/58 70/69/65
f 48/61/59 64/74/68 49/65/61
f 41/63/60 57/75/69 42/66/62
f 49/65/61 65/76/70 50/50/48
f 42/66/62 58/77/71 43/51/49
f 51/52/50 65/76/70 66/78/72
f 43/51/49 59/79/73 44/53/51
f 51/52/50 67/80/74 52/54/52
f 44/53/51 60/81/75 45/55/53
f 52/54/52 68/82/76 53/56/54
f 46/57/55 60/81/75 61/83/77
f 66/78/72 80/84/78 81/85/79
f 58/77/71 74/86/80 59/79/73
f 66/78/72 82/87/81 67/80/74
f 60/81/75 74/86/80 75/88/82
f 67/80/74 83/89/83 68/82/76
f 60/81/75 76/90/84 61/83/77
f 68/82/76 84/91/85 69/67/63
f 62/68/64 76/90/84 77/92/86
f 70/69/65 84/91/85 85/93/87
f 62/68/64 78/94/88 63/70/66
f 56/72/67 297/95/8 71/96/89
f 206/97/10 70/69/65 85/93/87
f 64/74/68 78/94/88 79/98/90
f 56/72/67 72/99/91 57/75/69
f 64/74/68 80/84/78 65/76/70
f 57/75/69 73/100/92 58/77/71
f 84/91/85 100/101/93 85/93/87
f 77/92/86 93/102/94 78/94/88
f 71/96/89 297/103/8 86/104/95
f 206/105/10 85/93/87 100/101/93
f 78/94/88 94/106/96 79/98/90
f 71/96/89 87/107/97 72/99/91
f 79/98/90 95/108/98 80/84/78
f 72/99/91 88/109/99 73/100/92
f 81/85/79 95/108/98 96/110/100
f 73/100/92 89/111/101 74/86/80
f 82/87/81 96/110/100 97/112/102
f 74/86/80 90/113/103 75/88/82
f 83/89/83 97/112/102 98/114/104
f 75/88/82 91/115/105 76/90/84
f 83/89/83 99/116/106 84/91/85
f 77/92/86 91/115/105 92/117/107
f 88/109/99 104/118/108 89/111/101
f 96/110/100 112/119/109 97/112/102
f 90/113/103 104/118/108 105/120/110
f 98/114/104 112/119/109 113/121/111
f 90/113/103 106/122/112 91/115/105
f 99/116/106 113/121/111 114/123/113
f 92/117/107 106/122/112 107/124/114
f 99/116/106 115/125/115 100/101/93
f 92/117/107 108/126/116 93/102/94
f 86/104/95 297/127/8 101/128/117
f 206/129/10 100/101/93 115/125/115
f 93/102/94 109/130/118 94/106/96
f 86/104/95 102/131/119 87/107/97
f 94/106/96 110/132/120 95/108/98
f 87/107/97 103/133/121 88/109/99
f 96/110/100 110/132/120 111/134/122
f 107/124/114 123/135/123 108/126/116
f 101/128/117 297/136/8 116/137/124
f 206/138/10 115/125/115 130/139/125
f 108/126/116 124/140/126 109/130/118
f 101/128/117 117/141/127 102/131/119
f 109/130/118 125/142/128 110/132/120
f 102/131/119 118/143/129 103/133/121
f 111/134/122 125/142/128 126/144/130
f 103/133/121 119/145/131 104/118/108
f 111/134/122 127/146/132 112/119/109
f 104/118/108 120/147/133 105/120/110
f 113/121/111 127/146/132 128/148/134
f 105/120/110 121/149/135 106/122/112
f 113/121/111 129/150/136 114/123/113
f 107/124/114 121/149/135 122/151/137
f 114/123/113 130/139/125 115/125/115
f 126/144/130 142/152/138 127/146/132
f 119/145/131 135/153/139 120/147/133
f 127/146/132 143/154/140 128/148/134
f 120/147/133 136/155/141 121/149/135
f 128/148/134 144/156/142 129/150/136
f 122/151/137 136/155/141 137/157/143
f 129/150/136 145/158/144 130/139/125
f 122/151/137 138/159/145 123/135/123
f 116/137/124 297/160/8 131/161/146
f 206/162/10 130/139/125 145/158/144
f 124/140/126 138/159/145 139/163/147
f 116/137/124 132/164/148 117/141/127
f 124/140/126 140/165/149 125/142/128
f 117/141/127 133/166/150 118/143/129
f 126/144/130 140/165/149 141/167/151
f 118/143/129 134/168/152 119/145/131
f 131/161/146 297/169/8 146/170/153
f 206/171/10 145/158/144 160/172/154
f 139/163/147 153/173/155 154/174/156
f 131/161/146 147/175/157 132/164/148
f 139/163/147 155/176/158 140/165/149
f 132/164/148 148/177/159 133/166/150
f 141/167/151 155/176/158 156/178/160
f 133/166/150 149/179/161 134/168/152
f 142/152/138 156/178/160 157/180/162
f 135/153/139 149/179/161 150/181/163
f 142/152/138 158/182/164 143/154/140
f 135/153/139 151/183/165 136/155/141
f 143/154/140 159/184/166 144/156/142
f 137/157/143 151/183/165 152/185/167
f 145/158/144 159/184/166 160/172/154
f 137/157/143 153/173/155 138/159/145
f 150/181/163 164/186/168 165/187/169
f 158/182/164 172/188/170 173/189/171
f 150/181/163 166/190/172 151/183/165
f 158/182/164 174/191/173 159/184/166
f 152/185/167 166/190/172 167/192/174
f 159/184/166 175/193/175 160/172/154
f 153/173/155 167/192/174 168/194/176
f 146/170/153 297/195/8 161/196/177
f 206/197/10 160/172/154 175/193/175
f 154/174/156 168/194/176 169/198/178
f 146/170/153 162/199/179 147/175/157
f 154/174/156 170/200/180 155/176/158
f 147/175/157 163/201/181 148/177/159
f 156/178/160 170/200/180 171/202/182
f 148/177/159 164/186/168 149/179/161
f 156/178/160 172/188/170 157/180/162
f 169/198/178 183/203/183 184/204/184
f 161/196/177 177/205/185 162/199/179
f 169/198/178 185/206/186 170/200/180
f 162/199/179 178/207/187 163/201/181
f 171/202/182 185/206/186 186/208/188
f 163/201/181 179/209/189 164/186/168
f 171/202/182 187/210/190 172/188/170
f 164/186/168 180/211/191 165/187/169
f 173/189/171 187/210/190 188/212/192
f 165/187/169 181/213/193 166/190/172
f 174/191/173 188/212/192 189/214/194
f 167/192/174 181/213/193 182/215/195
f 175/193/175 189/214/194 190/216/196
f 168/194/176 182/215/195 183/203/183
f 161/196/177 297/217/8 176/218/197
f 206/219/10 175/193/175 190/216/196
f 187/210/190 203/220/198 188/212/192
f 180/211/191 196/221/199 181/213/193
f 189/214/194 203/220/198 204/222/200
f 182/215/195 196/221/199 197/223/201
f 189/214/194 205/224/202 190/216/196
f 182/215/195 198/225/203 183/203/183
f 176/218/197 297/226/8 191/227/204
f 206/228/10 190/216/196 205/224/202
f 183/203/183 199/229/205 184/204/184
f 176/218/197 192/230/206 177/205/185
f 184/204/184 200/231/207 185/206/186
f 177/205/185 193/232/208 178/207/187
f 186/208/188 200/231/207 201/233/209
f 178/207/187 194/234/210 179/209/189
f 186/208/188 202/235/211 187/210/190
f 180/211/191 194/234/210 195/236/212
f 199/229/205 216/237/213 200/231/207
f 193/232/208 208/238/214 209/239/215
f 201/233/209 216/237/213 217/240/216
f 193/232/208 210/241/217 194/234/210
f 201/233/209 218/242/218 202/235/211
f 194/234/210 211/243/219 195/236/212
f 203/220/198 218/242/218 219/244/220
f 195/236/212 212/245/221 196/221/199
f 203/220/198 220/246/222 204/222/200
f 197/223/201 212/245/221 213/247/223
f 204/222/200 221/248/224 205/224/202
f 198/225/203 213/247/223 214/249/225
f 191/227/204 297/250/8 207/251/226
f 206/252/10 205/224/202 221/248/224
f 199/229/205 214/249/225 215/253/227
f 191/227/204 208/238/214 192/230/206
f 219/244/220 235/254/228 220/246/222
f 213/247/223 227/255/229 228/256/230
f 220/246/222 236/257/231 221/248/224
f 214/249/225 228/256/230 229/258/232
f 207/251/226 297/259/8 222/260/233
f 206/261/10 221/248/224 236/257/231
f 214/249/225 230/262/234 215/253/227
f 207/251/226 223/263/235 208/238/214
f 215/253/227 231/264/236 216/237/213
f 208/238/214 224/265/237 209/239/215
f 217/240/216 231/264/236 232/266/238
f 210/241/217 224/265/237 225/267/239
f 217/240/216 233/268/240 218/242/218
f 211/243/219 225/267/239 226/269/241
f 218/242/218 234/270/242 219/244/220
f 211/243/219 227/255/229 212/245/221
f 224/265/237 238/271/243 239/272/244
f 232/266/238 246/273/245 247/274/246
f 224/265/237 240/275/247 225/267/239
f 232/266/238 248/276/248 233/268/240
f 225/267/239 241/277/249 226/269/241
f 234/270/242 248/276/248 249/278/250
f 226/269/241 242/279/251 227/255/229
f 235/254/228 249/278/250 250/280/252
f 228/256/230 242/279/251 243/281/253
f 236/257/231 250/280/252 251/282/254
f 229/258/232 243/281/253 244/283/255
f 222/260/233 297/284/8 237/285/256
f 206/286/10 236/257/231 251/282/254
f 229/258/232 245/287/257 230/262/234
f 222/260/233 238/271/243 223/263/235
f 230/262/234 246/273/245 231/264/236
f 243/281/253 257/288/258 258/289/259
f 250/280/252 266/290/260 251/282/254
f 243/281/253 259/291/261 244/283/255
f 237/285/256 297/292/8 252/293/262
f 206/294/10 251/282/254 266/290/260
f 244/283/255 260/295/263 245/287/257
f 237/285/256 253/296/264 238/271/243
f 245/287/257 261/297/265 246/273/245
f 238/271/243 254/298/266 239/272/244
f 247/274/246 261/297/265 262/299/267
f 239/272/244 255/300/268 240/275/247
f 247/274/246 263/301/269 248/276/248
f 241/277/249 255/300/268 256/302/270
f 248/276/248 264/303/271 249/278/250
f 241/277/249 257/288/258 242/279/251
f 249/278/250 265/304/272 250/280/252
f 262/299/267 276/305/273 277/306/274
f 254/298/266 270/307/275 255/300/268
f 263/301/269 277/306/274 278/308/276
f 255/300/268 271/309/277 256/302/270
f 263/301/269 279/310/278 264/303/271
f 256/302/270 272/311/279 257/288/258
f 265/304/272 279/310/278 280/312/280
f 258/289/259 272/311/279 273/313/281
f 266/290/260 280/312/280 281/314/282
f 259/291/261 273/313/281 274/315/283
f 252/293/262 297/316/8 267/317/284
f 206/318/10 266/290/260 281/314/282
f 259/291/261 275/319/285 260/295/263
f 252/293/262 268/320/286 253/296/264
f 260/295/263 276/305/273 261/297/265
f 254/298/266 268/320/286 269/321/287
f 280/312/280 296/322/288 281/314/282
f 273/313/281 289/323/289 274/315/283
f 267/317/284 297/324/8 282/325/290
f 206/326/10 281/314/282 296/322/288
f 274/315/283 290/327/291 275/319/285
f 267/317/284 283/328/292 268/320/286
f 275/319/285 291/329/293 276/305/273
f 268/320/286 284/330/294 269/321/287
f 277/306/274 291/329/293 292/331/295
f 270/307/275 284/330/294 285/332/296
f 277/306/274 293/333/297 278/308/276
f 271/309/277 285/332/296 286/334/298
f 278/308/276 294/335/299 279/310/278
f 271/309/277 287/336/300 272/311/279
f 280/312/280 294/335/299 295/337/301
f 273/313/281 287/336/300 288/338/302
f 285/332/296 300/339/303 301/340/304
f 293/333/297 308/341/305 309/342/306
f 286/334/298 301/340/304 302/343/307
f 294/335/299 309/342/306 310/344/308
f 286/334/298 303/345/309 287/336/300
f 294/335/299 311/346/310 295/337/301
f 288/338/302 303/345/309 304/347/311
f 295/337/301 312/348/312 296/322/288
f 288/338/302 305/349/313 289/323/289
f 282/325/290 297/350/8 298/351/314
f 206/352/10 296/322/288 312/348/312
f 289/323/289 306/353/315 290/327/291
f 282/325/290 299/354/316 283/328/292
f 290/327/291 307/355/317 291/329/293
f 283/328/292 300/339/303 284/330/294
f 292/331/295 307/355/317 308/341/305
f 304/347/311 320/356/318 305/349/313
f 298/351/314 297/357/8 313/358/319
f 206/359/10 312/348/312 327/360/320
f 305/349/313 321/361/321 306/353/315
f 298/351/314 314/362/322 299/354/316
f 306/353/315 322/363/323 307/355/317
f 299/354/316 315/364/324 300/339/303
f 308/341/305 322/363/323 323/365/325
f 300/339/303 316/366/326 301/340/304
f 308/341/305 324/367/327 309/342/306
f 302/343/307 316/366/326 317/368/328
f 310/344/308 324/367/327 325/369/329
f 302/343/307 318/370/330 303/345/309
f 310/344/308 326/371/331 311/346/310
f 304/347/311 318/370/330 319/372/332
f 311/346/310 327/360/320 312/348/312
f 323/365/325 339/373/333 324/367/327
f 317/368/328 331/374/334 332/375/335
f 324/367/327 340/376/336 325/369/329
f 317/368/328 333/377/337 318/370/330
f 326/371/331 340/376/336 341/378/338
f 319/372/332 333/377/337 334/379/339
f 326/371/331 342/380/340 327/360/320
f 319/372/332 335/381/341 320/356/318
f 313/358/319 297/382/8 328/383/342
f 206/384/10 327/360/320 342/380/340
f 320/356/318 336/385/343 321/361/321
f 313/358/319 329/386/344 314/362/322
f 321/361/321 337/387/345 322/363/323
f 314/362/322 330/388/346 315/364/324
f 323/365/325 337/387/345 338/389/347
f 316/366/326 330/388/346 331/374/334
f 206/390/10 342/380/340 357/391/348
f 336/385/343 350/392/349 351/393/350
f 329/386/344 343/394/351 344/395/352
f 336/385/343 352/396/353 337/387/345
f 329/386/344 345/397/354 330/388/346
f 338/389/347 352/396/353 353/398/355
f 331/374/334 345/397/354 346/399/356
f 339/373/333 353/398/355 354/400/357
f 332/375/335 346/399/356 347/401/358
f 339/373/333 355/402/359 340/376/336
f 332/375/335 348/403/360 333/377/337
f 341/378/338 355/402/359 356/404/361
f 334/379/339 348/403/360 349/405/362
f 341/378/338 357/391/348 342/380/340
f 334/379/339 350/392/349 335/381/341
f 328/383/342 297/406/8 343/394/351
f 354/400/357 370/407/363 355/402/359
f 347/401/358 363/408/364 348/403/360
f 356/404/361 370/407/363 371/409/365
f 349/405/362 363/408/364 364/410/366
f 356/404/361 372/411/367 357/391/348
f 349/405/362 365/412/368 350/392/349
f 343/394/351 297/413/8 358/414/369
f 206/415/10 357/391/348 372/411/367
f 351/393/350 365/412/368 366/416/370
f 343/394/351 359/417/371 344/395/352
f 351/393/350 367/418/372 352/396/353
f 344/395/352 360/419/373 345/397/354
f 353/398/355 367/418/372 368/420/374
f 346/399/356 360/419/373 361/421/375
f 353/398/355 369/422/376 354/400/357
f 346/399/356 362/423/377 347/401/358
f 358/424/369 374/425/378 359/426/371
f 366/427/370 382/428/379 367/429/372
f 359/426/371 375/430/380 360/431/373
f 368/432/374 382/428/379 383/433/381
f 361/434/375 375/430/380 376/435/382
f 368/432/374 384/436/383 369/437/376
f 361/434/375 377/438/384 362/439/377
f 369/437/376 385/440/385 370/441/363
f 362/439/377 378/442/386 363/443/364
f 371/444/365 385/440/385 386/445/387
f 364/446/366 378/442/386 379/447/388
f 372/448/367 386/445/387 387/449/389
f 365/450/368 379/447/388 380/451/390
f 358/424/369 297/452/8 373/453/391
f 206/454/10 372/448/367 387/449/389
f 365/450/368 381/455/392 366/427/370
f 377/438/384 393/456/393 378/442/386
f 386/445/387 400/457/394 401/458/395
f 379/447/388 393/456/393 394/459/396
f 386/445/387 402/460/397 387/449/389
f 379/447/388 395/461/398 380/451/390
f 373/453/391 297/462/8 388/463/399
f 206/464/10 387/449/389 402/460/397
f 381/455/392 395/461/398 396/465/400
f 374/425/378 388/463/399 389/466/401
f 381/455/392 397/467/402 382/428/379
f 374/425/378 390/468/403 375/430/380
f 383/433/381 397/467/402 398/469/404
f 375/430/380 391/470/405 376/435/382
f 383/433/381 399/471/406 384/436/383
f 376/435/382 392/472/407 377/438/384
f 384/436/383 400/457/394 385/440/385
f 396/465/400 412/473/408 397/467/402
f 390/468/403 404/474/409 405/475/410
f 398/469/404 412/473/408 413/476/411
f 390/468/403 406/477/412 391/470/405
f 398/469/404 414/478/413 399/471/406
f 392/472/407 406/477/412 407/479/414
f 399/471/406 415/480/415 400/457/394
f 392/472/407 408/481/416 393/456/393
f 401/458/395 415/480/415 416/482/417
f 394/459/396 408/481/416 409/483/418
f 402/460/397 416/482/417 417/484/419
f 394/459/396 410/485/420 395/461/398
f 388/463/399 297/486/8 403/487/421
f 206/488/10 402/460/397 417/484/419
f 396/465/400 410/485/420 411/489/422
f 388/463/399 404/474/409 389/466/401
f 415/480/415 431/490/423 416/482/417
f 409/483/418 423/491/424 424/492/425
f 416/482/417 432/493/426 417/484/419
f 410/485/420 424/492/425 425/494/427
f 403/487/421 297/495/8 418/496/428
f 206/497/10 417/484/419 432/493/426
f 410/485/420 426/498/429 411/489/422
f 403/487/421 419/499/430 404/474/409
f 411/489/422 427/500/431 412/473/408
f 404/474/409 420/501/432 405/475/410
f 413/476/411 427/500/431 428/502/433
f 405/475/410 421/503/434 406/477/412
f 413/476/411 429/504/435 414/478/413
f 407/479/414 421/503/434 422/505/436
f 414/478/413 430/506/437 415/480/415
f 407/479/414 423/491/424 408/481/416
f 419/499/430 435/507/438 420/501/432
f 428/502/433 442/508/439 443/509/440
f 420/501/432 436/510/441 421/503/434
f 428/502/433 444/511/442 429/504/435
f 422/505/436 436/510/441 437/512/443
f 429/504/435 445/513/444 430/506/437
f 422/505/436 438/514/445 423/491/424
f 430/506/437 446/515/446 431/490/423
f 424/492/425 438/514/445 439/516/447
f 431/490/423 447/517/448 432/493/426
f 425/494/427 439/516/447 440/518/449
f 418/496/428 297/519/8 433/520/450
f 206/521/10 432/493/426 447/517/448
f 425/494/427 441/522/451 426/498/429
f 419/499/430 433/520/450 434/523/452
f 426/498/429 442/508/439 427/500/431
f 439/516/447 453/524/453 454/525/454
f 446/515/446 462/526/455 447/517/448
f 440/518/449 454/525/454 455/527/456
f 433/520/450 297/528/8 448/529/457
f 206/530/10 447/517/448 462/526/455
f 441/522/451 455/527/456 456/531/458
f 434/523/452 448/529/457 449/532/459
f 441/522/451 457/533/460 442/508/439
f 435/507/438 449/532/459 450/534/461
f 443/509/440 457/533/460 458/535/462
f 435/507/438 451/536/463 436/510/441
f 443/509/440 459/537/464 444/511/442
f 437/512/443 451/536/463 452/538/465
f 444/511/442 460/539/466 445/513/444
f 437/512/443 453/524/453 438/514/445
f 445/513/444 461/540/467 446/515/446
f 458/535/462 472/541/468 473/542/469
f 451/536/463 465/543/470 466/544/471
f 458/535/462 474/545/472 459/537/464
f 452/538/465 466/544/471 467/546/473
f 460/539/466 474/545/472 475/547/474
f 452/538/465 468/548/475 453/524/453
f 461/540/467 475/547/474 476/549/476
f 454/525/454 468/548/475 469/550/477
f 461/540/467 477/551/478 462/526/455
f 454/525/454 470/552/479 455/527/456
f 448/529/457 297/553/8 463/554/480
f 206/555/10 462/526/455 477/551/478
f 455/527/456 471/556/481 456/531/458
f 448/529/457 464/557/482 449/532/459
f 456/531/458 472/541/468 457/533/460
f 449/532/459 465/543/470 450/534/461
f 476/549/476 482/3/3 477/551/478
f 470/552/479 7/4/4 8/6/6
f 463/554/480 297/558/8 1/7/7
f 206/559/10 477/551/478 482/3/3
f 470/552/479 9/12/12 471/556/481
f 464/557/482 1/7/7 2/13/13
f 471/556/481 478/16/16 472/541/468
f 465/543/470 2/13/13 3/18/18
f 473/542/469 478/16/16 479/20/20
f 466/544/471 3/18/18 4/21/21
f 473/542/469 480/24/24 474/545/472
f 467/546/473 4/21/21 5/26/26
f 474/545/472 10/28/28 475/547/474
f 468/548/475 5/26/26 6/30/30
f 475/547/474 481/1/1 476/549/476
f 469/550/477 6/30/30 7/4/4
f 481/1/1 24/31/31 25/2/2
f 7/4/4 17/32/32 18/5/5
f 8/6/6 18/5/5 19/11/11
f 2/13/13 1/7/7 11/9/9
f 9/12/12 19/11/11 20/15/15
f 2/13/13 12/14/14 13/17/17
f 478/16/16 20/15/15 21/19/19
f 4/21/21 3/18/18 13/17/17
f 479/20/20 21/19/19 22/23/23
f 4/21/21 14/22/22 15/25/25
f 480/24/24 22/23/23 23/27/27
f 5/26/26 15/25/25 16/29/29
f 10/28/28 23/27/27 24/31/31
f 6/30/30 16/29/29 17/32/32
f 15/25/25 30/49/47 31/33/33
f 24/31/31 23/27/27 38/34/34
f 16/29/29 31/33/33 32/36/36
f 24/31/31 39/35/35 40/37/37
f 17/32/32 32/36/36 33/38/38
f 19/11/11 18/5/5 33/38/38
f 11/9/9 26/40/39 27/43/41
f 20/15/15 19/11/11 34/42/40
f 13/17/17 12/14/14 27/43/41
f 21/19/19 20/15/15 35/44/42
f 13/17/17 28/45/43 29/47/45
f 22/23/23 21/19/19 36/46/44
f 14/22/22 29/47/45 30/49/47
f 23/27/27 22/23/23 37/48/46
f 34/42/40 49/65/61 50/50/48
f 27/43/41 42/66/62 43/51/49
f 35/44/42 50/50/48 51/52/50
f 28/45/43 43/51/49 44/53/51
f 36/46/44 51/52/50 52/54/52
f 29/47/45 44/53/51 45/55/53
f 37/48/46 52/54/52 53/56/54
f 30/49/47 45/55/53 46/57/55
f 39/35/35 38/34/34 53/56/54
f 31/33/33 46/57/55 47/59/57
f 40/37/37 39/35/35 54/58/56
f 32/36/36 47/59/57 48/61/59
f 34/42/40 33/38/38 48/61/59
f 27/43/41 26/40/39 41/63/60
f 53/56/54 68/82/76 69/67/63
f 46/57/55 61/83/77 62/68/64
f 54/58/56 69/67/63 70/69/65
f 47/59/57 62/68/64 63/70/66
f 48/61/59 63/70/66 64/74/68
f 41/63/60 56/72/67 57/75/69
f 49/65/61 64/74/68 65/76/70
f 42/66/62 57/75/69 58/77/71
f 51/52/50 50/50/48 65/76/70
f 43/51/49 58/77/71 59/79/73
f 51/52/50 66/78/72 67/80/74
f 44/53/51 59/79/73 60/81/75
f 52/54/52 67/80/74 68/82/76
f 46/57/55 45/55/53 60/81/75
f 66/78/72 65/76/70 80/84/78
f 58/77/71 73/100/92 74/86/80
f 66/78/72 81/85/79 82/87/81
f 60/81/75 59/79/73 74/86/80
f 67/80/74 82/87/81 83/89/83
f 60/81/75 75/88/82 76/90/84
f 68/82/76 83/89/83 84/91/85
f 62/68/64 61/83/77 76/90/84
f 70/69/65 69/67/63 84/91/85
f 62/68/64 77/92/86 78/94/88
f 64/74/68 63/70/66 78/94/88
f 56/72/67 71/96/89 72/99/91
f 64/74/68 79/98/90 80/84/78
f 57/75/69 72/99/91 73/100/92
f 84/91/85 99/116/106 100/101/93
f 77/92/86 92/117/107 93/102/94
f 78/94/88 93/102/94 94/106/96
f 71/96/89 86/104/95 87/107/97
f 79/98/90 94/106/96 95/108/98
f 72/99/91 87/107/97 88/109/99
f 81/85/79 80/84/78 95/108/98
f 73/100/92 88/109/99 89/111/101
f 82/87/81 81/85/79 96/110/100
f 74/86/80 89/111/101 90/113/103
f 83/89/83 82/87/81 97/112/102
f 75/88/82 90/113/103 91/115/105
f 83/89/83 98/114/104 99/116/106
f 77/92/86 76/90/84 91/115/105
f 88/109/99 103/133/121 104/118/108
f 96/110/100 111/134/122 112/119/109
f 90/113/103 89/111/101 104/118/108
f 98/114/104 97/112/102 112/119/109
f 90/113/103 105/120/110 106/122/112
f 99/116/106 98/114/104 113/121/111
f 92/117/107 91/115/105 106/122/112
f 99/116/106 114/123/113 115/125/115
f 92/117/107 107/124/114 108/126/116
f 93/102/94 108/126/116 109/130/118
f 86/104/95 101/128/117 102/131/119
f 94/106/96 109/130/118 110/132/120
f 87/107/97 102/131/119 103/133/121
f 96/110/100 95/108/98 110/132/120
f 107/124/114 122/151/137 123/135/123
f 108/126/116 123/135/123 124/140/126
f 101/128/117 116/137/124 117/141/127
f 109/130/118 124/140/126 125/142/128
f 102/131/119 117/141/127 118/143/129
f 111/134/122 110/132/120 125/142/128
f 103/133/121 118/143/129 119/145/131
f 111/134/122 126/144/130 127/146/132
f 104/118/108 119/145/131 120/147/133
f 113/121/111 112/119/109 127/146/132
f 105/120/110 120/147/133 121/149/135
f 113/121/111 128/148/134 129/150/136
f 107/124/114 106/122/112 121/149/135
f 114/123/113 129/150/136 130/139/125
f 126/144/130 141/167/151 142/152/138
f 119/145/131 134/168/152 135/153/139
f 127/146/132 142/152/138 143/154/140
f 120/147/133 135/153/139 136/155/141
f 128/148/134 143/154/140 144/156/142
f 122/151/137 121/149/135 136/155/141
f 129/150/136 144/156/142 145/158/144
f 122/151/137 137/157/143 138/159/145
f 124/140/126 123/135/123 138/159/145
f 116/137/124 131/161/146 132/164/148
f 124/140/126 139/163/147 140/165/149
f 117/141/127 132/164/148 133/166/150
f 126/144/130 125/142/128 140/165/149
f 118/143/129 133/166/150 134/168/152
f 139/163/147 138/159/145 153/173/155
f 131/161/146 146/170/153 147/175/157
f 139/163/147 154/174/156 155/176/158
f 132/164/148 147/175/157 148/177/159
f 141/167/151 140/165/149 155/176/158
f 133/166/150 148/177/159 149/179/161
f 142/152/138 141/167/151 156/178/160
f 135/153/139 134/168/152 149/179/161
f 142/152/138 157/180/162 158/182/164
f 135/153/139 150/181/163 151/183/165
f 143/154/140 158/182/164 159/184/166
f 137/157/143 136/155/141 151/183/165
f 145/158/144 144/156/142 159/184/166
f 137/157/143 152/185/167 153/173/155
f 150/181/163 149/179/161 164/186/168
f 158/182/164 157/180/162 172/188/170
f 150/181/163 165/187/169 166/190/172
f 158/182/164 173/189/171 174/191/173
f 152/185/167 151/183/165 166/190/172
f 159/184/166 174/191/173 175/193/175
f 153/173/155 152/185/167 167/192/174
f 154/174/156 153/173/155 168/194/176
f 146/170/153 161/196/177 162/199/179
f 154/174/156 169/198/178 170/200/180
f 147/175/157 162/199/179 163/201/181
f 156/178/160 155/176/158 170/200/180
f 148/177/159 163/201/181 164/186/168
f 156/178/160 171/202/182 172/188/170
f 169/198/178 168/194/176 183/203/183
f 161/196/177 176/218/197 177/205/185
f 169/198/178 184/204/184 185/206/186
f 162/199/179 177/205/185 178/207/187
f 171/202/182 170/200/180 185/206/186
f 163/201/181 178/207/187 179/209/189
f 171/202/182 186/208/188 187/210/190
f 164/186/168 179/209/189 180/211/191
f 173/189/171 172/188/170 187/210/190
f 165/187/169 180/211/191 181/213/193
f 174/191/173 173/189/171 188/212/192
f 167/192/174 166/190/172 181/213/193
f 175/193/175 174/191/173 189/214/194
f 168/194/176 167/192/174 182/215/195
f 187/210/190 202/235/211 203/220/198
f 180/211/191 195/236/212 196/221/199
f 189/214/194 188/212/192 203/220/198
f 182/215/195 181/213/193 196/221/199
f 189/214/194 204/222/200 205/224/202
f 182/215/195 197/223/201 198/225/203
f 183/203/183 198/225/203 199/229/205
f 176/218/197 191/227/204 192/230/206
f 184/204/184 199/229/205 200/231/207
f 177/205/185 192/230/206 193/232/208
f 186/208/188 185/206/186 200/231/207
f 178/207/187 193/232/208 194/234/210
f 186/208/188 201/233/209 202/235/211
f 180/211/191 179/209/189 194/234/210
f 199/229/205 215/253/227 216/237/213
f 193/232/208 192/230/206 208/238/214
f 201/233/209 200/231/207 216/237/213
f 193/232/208 209/239/215 210/241/217
f 201/233/209 217/240/216 218/242/218
f 194/234/210 210/241/217 211/243/219
f 203/220/198 202/235/211 218/242/218
f 195/236/212 211/243/219 212/245/221
f 203/220/198 219/244/220 220/246/222
f 197/223/201 196/221/199 212/245/221
f 204/222/200 220/246/222 221/248/224
f 198/225/203 197/223/201 213/247/223
f 199/229/205 198/225/203 214/249/225
f 191/227/204 207/251/226 208/238/214
f 219/244/220 234/270/242 235/254/228
f 213/247/223 212/245/221 227/255/229
f 220/246/222 235/254/228 236/257/231
f 214/249/225 213/247/223 228/256/230
f 214/249/225 229/258/232 230/262/234
f 207/251/226 222/260/233 223/263/235
f 215/253/227 230/262/234 231/264/236
f 208/238/214 223/263/235 224/265/237
f 217/240/216 216/237/213 231/264/236
f 210/241/217 209/239/215 224/265/237
f 217/240/216 232/266/238 233/268/240
f 211/243/219 210/241/217 225/267/239
f 218/242/218 233/268/240 234/270/242
f 211/243/219 226/269/241 227/255/229
f 224/265/237 223/263/235 238/271/243
f 232/266/238 231/264/236 246/273/245
f 224/265/237 239/272/244 240/275/247
f 232/266/238 247/274/246 248/276/248
f 225/267/239 240/275/247 241/277/249
f 234/270/242 233/268/240 248/276/248
f 226/269/241 241/277/249 242/279/251
f 235/254/228 234/270/242 249/278/250
f 228/256/230 227/255/229 242/279/251
f 236/257/231 235/254/228 250/280/252
f 229/258/232 228/256/230 243/281/253
f 229/258/232 244/283/255 245/287/257
f 222/260/233 237/285/256 238/271/243
f 230/262/234 245/287/257 246/273/245
f 243/281/253 242/279/251 257/288/258
f 250/280/252 265/304/272 266/290/260
f 243/281/253 258/289/259 259/291/261
f 244/283/255 259/291/261 260/295/263
f 237/285/256 252/293/262 253/296/264
f 245/287/257 260/295/263 261/297/265
f 238/271/243 253/296/264 254/298/266
f 247/274/246 246/273/245 261/297/265
f 239/272/244 254/298/266 255/300/268
f 247/274/246 262/299/267 263/301/269
f 241/277/249 240/275/247 255/300/268
f 248/276/248 263/301/269 264/303/271
f 241/277/249 256/302/270 257/288/258
f 249/278/250 264/303/271 265/304/272
f 262/299/267 261/297/265 276/305/273
f 254/298/266 269/321/287 270/307/275
f 263/301/269 262/299/267 277/306/274
f 255/300/268 270/307/275 271/309/277
f 263/301/269 278/308/276 279/310/278
f 256/302/270 271/309/277 272/311/279
f 265/304/272 264/303/271 279/310/278
f 258/289/259 257/288/258 272/311/279
f 266/290/260 265/304/272 280/312/280
f 259/291/261 258/289/259 273/313/281
f 259/291/261 274/315/283 275/319/285
f 252/293/262 267/317/284 268/320/286
f 260/295/263 275/319/285 276/305/273
f 254/298/266 253/296/264 268/320/286
f 280/312/280 295/337/301 296/322/288
f 273/313/281 288/338/302 289/323/289
f 274/315/283 289/323/289 290/327/291
f 267/317/284 282/325/290 283/328/292
f 275/319/285 290/327/291 291/329/293
f 268/320/286 283/328/292 284/330/294
f 277/306/274 276/305/273 291/329/293
f 270/307/275 269/321/287 284/330/294
f 277/306/274 292/331/295 293/333/297
f 271/309/277 270/307/275 285/332/296
f 278/308/276 293/333/297 294/335/299
f 271/309/277 286/334/298 287/336/300
f 280/312/280 279/310/278 294/335/299
f 273/313/281 272/311/279 287/336/300
f 285/332/296 284/330/294 300/339/303
f 293/333/297 292/331/295 308/341/305
f 286/334/298 285/332/296 301/340/304
f 294/335/299 293/333/297 309/342/306
f 286/334/298 302/343/307 303/345/309
f 294/335/299 310/344/308 311/346/310
f 288/338/302 287/336/300 303/345/309
f 295/337/301 311/346/310 312/348/312
f 288/338/302 304/347/311 305/349/313
f 289/323/289 305/349/313 306/353/315
f 282/325/290 298/351/314 299/354/316
f 290/327/291 306/353/315 307/355/317
f 283/328/292 299/354/316 300/339/303
f 292/331/295 291/329/293 307/355/317
f 304/347/311 319/372/332 320/356/318
f 305/349/313 320/356/318 321/361/321
f 298/351/314 313/358/319 314/362/322
f 306/353/315 321/361/321 322/363/323
f 299/354/316 314/362/322 315/364/324
f 308/341/305 307/355/317 322/363/323
f 300/339/303 315/364/324 316/366/326
f 308/341/305 323/365/325 324/367/327
f 302/343/307 301/340/304 316/366/326
f 310/344/308 309/342/306 324/367/327
f 302/343/307 317/368/328 318/370/330
f 310/344/308 325/369/329 326/371/331
f 304/347/311 303/345/309 318/370/330
f 311/346/310 326/371/331 327/360/320
f 323/365/325 338/389/347 339/373/333
f 317/368/328 316/366/326 331/374/334
f 324/367/327 339/373/333 340/376/336
f 317/368/328 332/375/335 333/377/337
f 326/371/331 325/369/329 340/376/336
f 319/372/332 318/370/330 333/377/337
f 326/371/331 341/378/338 342/380/340
f 319/372/332 334/379/339 335/381/341
f 320/356/318 335/381/341 336/385/343
f 313/358/319 328/383/342 329/386/344
f 321/361/321 336/385/343 337/387/345
f 314/362/322 329/386/344 330/388/346
f 323/365/325 322/363/323 337/387/345
f 316/366/326 315/364/324 330/388/346
f 336/385/343 335/381/341 350/392/349
f 329/386/344 328/383/342 343/394/351
f 336/385/343 351/393/350 352/396/353
f 329/386/344 344/395/352 345/397/354
f 338/389/347 337/387/345 352/396/353
f 331/374/334 330/388/346 345/397/354
f 339/373/333 338/389/347 353/398/355
f 332/375/335 331/374/334 346/399/356
f 339/373/333 354/400/357 355/402/359
f 332/375/335 347/401/358 348/403/360
f 341/378/338 340/376/336 355/402/359
f 334/379/339 333/377/337 348/403/360
f 341/378/338 356/404/361 357/391/348
f 334/379/339 349/405/362 350/392/349
f 354/400/357 369/422/376 370/407/363
f 347/401/358 362/423/377 363/408/364
f 356/404/361 355/402/359 370/407/363
f 349/405/362 348/403/360 363/408/364
f 356/404/361 371/409/365 372/411/367
f 349/405/362 364/410/366 365/412/368
f 351/393/350 350/392/349 365/412/368
f 343/394/351 358/414/369 359/417/371
f 351/393/350 366/416/370 367/418/372
f 344/395/352 359/417/371 360/419/373
f 353/398/355 352/396/353 367/418/372
f 346/399/356 345/397/354 360/419/373
f 353/398/355 368/420/374 369/422/376
f 346/399/356 361/421/375 362/423/377
f 358/424/369 373/453/391 374/425/378
f 366/427/370 381/455/392 382/428/379
f 359/426/371 374/425/378 375/430/380
f 368/432/374 367/429/372 382/428/379
f 361/434/375 360/431/373 375/430/380
f 368/432/374 383/433/381 384/436/383
f 361/434/375 376/435/382 377/438/384
f 369/437/376 384/436/383 385/440/385
f 362/439/377 377/438/384 378/442/386
f 371/444/365 370/441/363 385/440/385
f 364/446/366 363/443/364 378/442/386
f 372/448/367 371/444/365 386/445/387
f 365/450/368 364/446/366 379/447/388
f 365/450/368 380/451/390 381/455/392
f 377/438/384 392/472/407 393/456/393
f 386/445/387 385/440/385 400/457/394
f 379/447/388 378/442/386 393/456/393
f 386/445/387 401/458/395 402/460/397
f 379/447/388 394/459/396 395/461/398
f 381/455/392 380/451/390 395/461/398
f 374/425/378 373/453/391 388/463/399
f 381/455/392 396/465/400 397/467/402
f 374/425/378 389/466/401 390/468/403
f 383/433/381 382/428/379 397/467/402
f 375/430/380 390/468/403 391/470/405
f 383/433/381 398/469/404 399/471/406
f 376/435/382 391/470/405 392/472/407
f 384/436/383 399/471/406 400/457/394
f 396/465/400 411/489/422 412/473/408
f 390/468/403 389/466/401 404/474/409
f 398/469/404 397/467/402 412/473/408
f 390/468/403 405/475/410 406/477/412
f 398/469/404 413/476/411 414/478/413
f 392/472/407 391/470/405 406/477/412
f 399/471/406 414/478/413 415/480/415
f 392/472/407 407/479/414 408/481/416
f 401/458/395 400/457/394 415/480/415
f 394/459/396 393/456/393 408/481/416
f 402/460/397 401/458/395 416/482/417
f 394/459/396 409/483/418 410/485/420
f 396/465/400 395/461/398 410/485/420
f 388/463/399 403/487/421 404/474/409
f 415/480/415 430/506/437 431/490/423
f 409/483/418 408/481/416 423/491/424
f 416/482/417 431/490/423 432/493/426
f 410/485/420 409/483/418 424/492/425
f 410/485/420 425/494/427 426/498/429
f 403/487/421 418/496/428 419/499/430
f 411/489/422 426/498/429 427/500/431
f 404/474/409 419/499/430 420/501/432
f 413/476/411 412/473/408 427/500/431
f 405/475/410 420/501/432 421/503/434
f 413/476/411 428/502/433 429/504/435
f 407/479/414 406/477/412 421/503/434
f 414/478/413 429/504/435 430/506/437
f 407/479/414 422/505/436 423/491/424
f 419/499/430 434/523/452 435/507/438
f 428/502/433 427/500/431 442/508/439
f 420/501/432 435/507/438 436/510/441
f 428/502/433 443/509/440 444/511/442
f 422/505/436 421/503/434 436/510/441
f 429/504/435 444/511/442 445/513/444
f 422/505/436 437/512/443 438/514/445
f 430/506/437 445/513/444 446/515/446
f 424/492/425 423/491/424 438/514/445
f 431/490/423 446/515/446 447/517/448
f 425/494/427 424/492/425 439/516/447
f 425/494/427 440/518/449 441/522/451
f 419/499/430 418/496/428 433/520/450
f 426/498/429 441/522/451 442/508/439
f 439/516/447 438/514/445 453/524/453
f 446/515/446 461/540/467 462/526/455
f 440/518/449 439/516/447 454/525/454
f 441/522/451 440/518/449 455/527/456
f 434/523/452 433/520/450 448/529/457
f 441/522/451 456/531/458 457/533/460
f 435/507/438 434/523/452 449/532/459
f 443/509/440 442/508/439 457/533/460
f 435/507/438 450/534/461 451/536/463
f 443/509/440 458/535/462 459/537/464
f 437/512/443 436/510/441 451/536/463
f 444/511/442 459/537/464 460/539/466
f 437/512/443 452/538/465 453/524/453
f 445/513/444 460/539/466 461/540/467
f 458/535/462 457/533/460 472/541/468
f 451/536/463 450/534/461 465/543/470
f 458/535/462 473/542/469 474/545/472
f 452/538/465 451/536/463 466/544/471
f 460/539/466 459/537/464 474/545/472
f 452/538/465 467/546/473 468/548/475
f 461/540/467 460/539/466 475/547/474
f 454/525/454 453/524/453 468/548/475
f 461/540/467 476/549/476 477/551/478
f 454/525/454 469/550/477 470/552/479
f 455/527/456 470/552/479 471/556/481
f 448/529/457 463/554/480 464/557/482
f 456/531/458 471/556/481 472/541/468
f 449/532/459 464/557/482 465/543/470
f 476/549/476 481/1/1 482/3/3
f 470/552/479 469/550/477 7/4/4
f 470/552/479 8/6/6 9/12/12
f 464/557/482 463/554/480 1/7/7
f 471/556/481 9/12/12 478/16/16
f 465/543/470 464/557/482 2/13/13
f 473/542/469 472/541/468 478/16/16
f 466/544/471 465/543/470 3/18/18
f 473/542/469 479/20/20 480/24/24
f 467/546/473 466/544/471 4/21/21
f 474/545/472 480/24/24 10/28/28
f 468/548/475 467/546/473 5/26/26
f 475/547/474 10/28/28 481/1/1
f 469/550/477 468/548/475 6/30/30
